<?xml version="1.0" encoding="UTF-8"?>
<svg version="1.1" xmlns="http://www.w3.org/2000/svg" width="512" height="512">
<path d="M0 0 C0.79019531 0.90363281 1.58039063 1.80726562 2.39453125 2.73828125 C10.06606214 11.30213883 17.71236757 11.41627152 28.7265625 12.37890625 C68.15674235 15.86301249 105.31385489 36.62701605 133.52050781 63.58789062 C134.5016484 64.5243456 135.48795247 65.45542231 136.47949219 66.38085938 C168.56582928 96.37322984 190.91887689 143.17675601 193.10786438 187.16769409 C193.16272967 189.34787829 193.19021026 191.5261984 193.203125 193.70703125 C193.21018463 194.50598312 193.21724426 195.304935 193.22451782 196.12809753 C193.45029005 229.16964276 193.45029005 229.16964276 190 244 C189.70198486 245.34191406 189.70198486 245.34191406 189.39794922 246.7109375 C183.95084977 270.80058181 175.02534149 296.04135495 159.04736328 315.28662109 C155.32908588 320.00603082 155.63381309 324.3414303 156.20173836 330.01556587 C156.4748003 332.12454945 156.78861257 334.22346096 157.11743164 336.32446289 C157.29540535 337.50903831 157.29540535 337.50903831 157.47697449 338.71754456 C157.73309761 340.41806156 157.99182204 342.11818846 158.25291634 343.8179493 C158.66622558 346.51222086 159.07143585 349.20760082 159.47447205 351.90342712 C160.62101801 359.56309291 161.78148367 367.22062335 162.94848633 374.87719727 C163.66364852 379.57303871 164.36906627 384.27026313 165.06869316 388.96844292 C165.33641205 390.75232494 165.60792937 392.53564134 165.88337898 394.31834602 C166.26867215 396.81259919 166.64159886 399.30842441 167.01196289 401.80493164 C167.12776703 402.53395691 167.24357117 403.26298218 167.36288452 404.01409912 C168.03478233 408.6556938 167.85663682 412.4437811 167 417 C161.77004193 419.35418503 158.25446561 418.69768263 152.99780273 416.99560547 C152.21801559 416.75848343 151.43822845 416.52136139 150.6348114 416.27705383 C148.06232165 415.49028117 145.49829831 414.67894405 142.93359375 413.8671875 C141.13532388 413.31187525 139.33657338 412.75811728 137.53736877 412.20584106 C132.79790714 410.74647885 128.06523358 409.26620044 123.3336792 407.78143311 C118.559008 406.28707804 113.77831758 404.81226111 108.99804688 403.3359375 C102.7728258 401.41133156 96.54933344 399.48142531 90.33010864 397.53752232 C88.73928475 397.0404957 87.14817282 396.5443899 85.55674744 396.04929256 C82.06847036 394.96363407 78.58410164 393.86916629 75.10951233 392.74040222 C73.96091232 392.37240005 72.81231232 392.00439789 71.62890625 391.62524414 C70.65244141 391.30672989 69.67597656 390.98821564 68.66992188 390.66004944 C60.49836135 388.63990271 51.84623368 391.89389641 43.9375 393.9375 C-5.67860982 406.13480871 -58.4137376 397.5965695 -102.5234375 372.015625 C-105.08053421 370.41835542 -107.54842565 368.75407256 -110 367 C-110.86882812 366.40058594 -111.73765625 365.80117188 -112.6328125 365.18359375 C-129.59799283 353.22096659 -129.59799283 353.22096659 -135.33984375 346.41088867 C-137.6027122 344.48778326 -139.38041536 344.37729881 -142.3125 344.0078125 C-143.37927979 343.86263184 -144.44605957 343.71745117 -145.54516602 343.56787109 C-146.68526123 343.42172363 -147.82535645 343.27557617 -149 343.125 C-158.85667827 341.7469869 -168.31463002 339.88077128 -177.87890625 337.1484375 C-178.90842407 336.8712085 -178.90842407 336.8712085 -179.95874023 336.58837891 C-182 336 -182 336 -183.94946289 335.23583984 C-191.31592642 332.77015842 -197.94440252 335.65916147 -204.95129395 338.06503296 C-207.36574812 338.89326576 -209.78783613 339.69390575 -212.21386719 340.48754883 C-214.86724379 341.35565797 -217.52003325 342.22523388 -220.17050171 343.10218811 C-231.16249587 346.73665024 -242.21168803 350.18553686 -253.27133179 353.60772705 C-256.70239485 354.67272344 -260.12918015 355.75074011 -263.5559082 356.82958984 C-265.69852135 357.49513974 -267.84133469 358.16004559 -269.984375 358.82421875 C-270.94967636 359.13100052 -271.91497772 359.43778229 -272.90953064 359.75386047 C-285.17677126 363.51707792 -285.17677126 363.51707792 -291 363 C-292.79093933 361.88873291 -292.79093933 361.88873291 -294 360 C-294.56034799 350.51287068 -292.30581628 340.40745003 -290.85711479 331.02923775 C-290.48636491 328.62840608 -290.12264441 326.22659358 -289.76051331 323.82444763 C-288.99221321 318.73620502 -288.21541724 313.64927988 -287.4375 308.5625 C-286.53146988 302.63593642 -285.62904185 296.70886432 -284.73506355 290.78046989 C-284.37809866 288.42512636 -284.01494167 286.07079335 -283.651474 283.71644592 C-283.43198146 282.26616883 -283.21277383 280.81584858 -282.99389648 279.36547852 C-282.80149887 278.10864761 -282.60910126 276.85181671 -282.41087341 275.55690002 C-281.5589465 268.18183321 -281.93165495 264.14655029 -286.375 258.1875 C-287.30224763 256.86573193 -288.22392422 255.54004196 -289.140625 254.2109375 C-289.61564453 253.52225586 -290.09066406 252.83357422 -290.58007812 252.12402344 C-302.1447443 234.82474632 -310.03596309 215.15073618 -315 195 C-315.29414795 193.8864917 -315.29414795 193.8864917 -315.59423828 192.75048828 C-322.54129003 165.52463461 -322.31047694 131.05710759 -315 104 C-314.63793457 102.60080322 -314.63793457 102.60080322 -314.26855469 101.17333984 C-302.75220644 57.5198613 -276.64979604 18.54020609 -240 -8 C-239.42733398 -8.41701172 -238.85466797 -8.83402344 -238.26464844 -9.26367188 C-167.80798739 -59.92292003 -66.14810067 -56.76283127 0 0 Z " fill="#FCE064" transform="translate(319,69)"/>
<path d="M0 0 C0.79019531 0.90363281 1.58039063 1.80726562 2.39453125 2.73828125 C10.06606214 11.30213883 17.71236757 11.41627152 28.7265625 12.37890625 C68.15674235 15.86301249 105.31385489 36.62701605 133.52050781 63.58789062 C134.5016484 64.5243456 135.48795247 65.45542231 136.47949219 66.38085938 C168.56582928 96.37322984 190.91887689 143.17675601 193.10786438 187.16769409 C193.16272967 189.34787829 193.19021026 191.5261984 193.203125 193.70703125 C193.21018463 194.50598312 193.21724426 195.304935 193.22451782 196.12809753 C193.45029005 229.16964276 193.45029005 229.16964276 190 244 C189.70198486 245.34191406 189.70198486 245.34191406 189.39794922 246.7109375 C183.95084977 270.80058181 175.02534149 296.04135495 159.04736328 315.28662109 C155.32908588 320.00603082 155.63381309 324.3414303 156.20173836 330.01556587 C156.4748003 332.12454945 156.78861257 334.22346096 157.11743164 336.32446289 C157.29540535 337.50903831 157.29540535 337.50903831 157.47697449 338.71754456 C157.73309761 340.41806156 157.99182204 342.11818846 158.25291634 343.8179493 C158.66622558 346.51222086 159.07143585 349.20760082 159.47447205 351.90342712 C160.62101801 359.56309291 161.78148367 367.22062335 162.94848633 374.87719727 C163.66364852 379.57303871 164.36906627 384.27026313 165.06869316 388.96844292 C165.33641205 390.75232494 165.60792937 392.53564134 165.88337898 394.31834602 C166.26867215 396.81259919 166.64159886 399.30842441 167.01196289 401.80493164 C167.12776703 402.53395691 167.24357117 403.26298218 167.36288452 404.01409912 C168.03478233 408.6556938 167.85663682 412.4437811 167 417 C161.77004193 419.35418503 158.25446561 418.69768263 152.99780273 416.99560547 C152.21801559 416.75848343 151.43822845 416.52136139 150.6348114 416.27705383 C148.06232165 415.49028117 145.49829831 414.67894405 142.93359375 413.8671875 C141.13532388 413.31187525 139.33657338 412.75811728 137.53736877 412.20584106 C132.79790714 410.74647885 128.06523358 409.26620044 123.3336792 407.78143311 C118.559008 406.28707804 113.77831758 404.81226111 108.99804688 403.3359375 C102.7728258 401.41133156 96.54933344 399.48142531 90.33010864 397.53752232 C88.73928475 397.0404957 87.14817282 396.5443899 85.55674744 396.04929256 C82.06847036 394.96363407 78.58410164 393.86916629 75.10951233 392.74040222 C73.96091232 392.37240005 72.81231232 392.00439789 71.62890625 391.62524414 C70.65244141 391.30672989 69.67597656 390.98821564 68.66992188 390.66004944 C60.49836135 388.63990271 51.84623368 391.89389641 43.9375 393.9375 C-5.67860982 406.13480871 -58.4137376 397.5965695 -102.5234375 372.015625 C-105.08053421 370.41835542 -107.54842565 368.75407256 -110 367 C-110.86882812 366.40058594 -111.73765625 365.80117188 -112.6328125 365.18359375 C-129.59799283 353.22096659 -129.59799283 353.22096659 -135.33984375 346.41088867 C-137.6027122 344.48778326 -139.38041536 344.37729881 -142.3125 344.0078125 C-143.37927979 343.86263184 -144.44605957 343.71745117 -145.54516602 343.56787109 C-146.68526123 343.42172363 -147.82535645 343.27557617 -149 343.125 C-158.85667827 341.7469869 -168.31463002 339.88077128 -177.87890625 337.1484375 C-178.90842407 336.8712085 -178.90842407 336.8712085 -179.95874023 336.58837891 C-182 336 -182 336 -183.94946289 335.23583984 C-191.31592642 332.77015842 -197.94440252 335.65916147 -204.95129395 338.06503296 C-207.36574812 338.89326576 -209.78783613 339.69390575 -212.21386719 340.48754883 C-214.86724379 341.35565797 -217.52003325 342.22523388 -220.17050171 343.10218811 C-231.16249587 346.73665024 -242.21168803 350.18553686 -253.27133179 353.60772705 C-256.70239485 354.67272344 -260.12918015 355.75074011 -263.5559082 356.82958984 C-265.69852135 357.49513974 -267.84133469 358.16004559 -269.984375 358.82421875 C-270.94967636 359.13100052 -271.91497772 359.43778229 -272.90953064 359.75386047 C-285.17677126 363.51707792 -285.17677126 363.51707792 -291 363 C-292.79093933 361.88873291 -292.79093933 361.88873291 -294 360 C-294.56034799 350.51287068 -292.30581628 340.40745003 -290.85711479 331.02923775 C-290.48636491 328.62840608 -290.12264441 326.22659358 -289.76051331 323.82444763 C-288.99221321 318.73620502 -288.21541724 313.64927988 -287.4375 308.5625 C-286.53146988 302.63593642 -285.62904185 296.70886432 -284.73506355 290.78046989 C-284.37809866 288.42512636 -284.01494167 286.07079335 -283.651474 283.71644592 C-283.43198146 282.26616883 -283.21277383 280.81584858 -282.99389648 279.36547852 C-282.80149887 278.10864761 -282.60910126 276.85181671 -282.41087341 275.55690002 C-281.5589465 268.18183321 -281.93165495 264.14655029 -286.375 258.1875 C-287.30224763 256.86573193 -288.22392422 255.54004196 -289.140625 254.2109375 C-289.61564453 253.52225586 -290.09066406 252.83357422 -290.58007812 252.12402344 C-302.1447443 234.82474632 -310.03596309 215.15073618 -315 195 C-315.29414795 193.8864917 -315.29414795 193.8864917 -315.59423828 192.75048828 C-322.54129003 165.52463461 -322.31047694 131.05710759 -315 104 C-314.63793457 102.60080322 -314.63793457 102.60080322 -314.26855469 101.17333984 C-302.75220644 57.5198613 -276.64979604 18.54020609 -240 -8 C-239.42733398 -8.41701172 -238.85466797 -8.83402344 -238.26464844 -9.26367188 C-167.80798739 -59.92292003 -66.14810067 -56.76283127 0 0 Z M-172 -29 C-173.02061523 -28.70528809 -174.04123047 -28.41057617 -175.09277344 -28.10693359 C-187.33754638 -24.4921503 -199.04352255 -20.17281212 -210.22363281 -13.98242188 C-211.97778059 -13.01228847 -213.75060503 -12.07617739 -215.5234375 -11.140625 C-229.82499394 -3.36314936 -242.32114542 6.72213613 -254 18 C-254.84949219 18.79792969 -255.69898438 19.59585938 -256.57421875 20.41796875 C-267.43581552 30.87033738 -276.38609396 43.0200434 -284 56 C-284.433125 56.73508789 -284.86625 57.47017578 -285.3125 58.22753906 C-296.15283865 76.94406127 -303.7286128 97.58077143 -307 119 C-307.16411377 119.81090088 -307.32822754 120.62180176 -307.49731445 121.45727539 C-309.23981855 130.51040086 -309.35694237 139.37992124 -309.3125 148.5625 C-309.31034485 149.3619101 -309.3081897 150.16132019 -309.30596924 150.98495483 C-309.25434005 162.91353618 -308.75710941 174.3522117 -306 186 C-305.80664062 186.87269531 -305.61328125 187.74539063 -305.4140625 188.64453125 C-300.4948483 210.59880203 -292.65723441 236.18047174 -277.1953125 253.2265625 C-271.08807789 260.26194827 -271.08807789 260.26194827 -270.92468262 265.34136963 C-271.17492511 268.13547893 -271.56596994 270.87482547 -272.01171875 273.64453125 C-272.23556999 275.20796265 -272.23556999 275.20796265 -272.46394348 276.80297852 C-272.95565879 280.20530716 -273.47806237 283.60218961 -274 287 C-274.33966104 289.32671485 -274.67688277 291.65378705 -275.01171875 293.98120117 C-276.22831019 302.39715438 -277.48126462 310.80758844 -278.74682617 319.21630859 C-279.28810499 322.82055516 -279.82224745 326.42580388 -280.35546875 330.03125 C-280.52104782 331.11772827 -280.68662689 332.20420654 -280.85722351 333.3236084 C-281.68522184 338.95283341 -282.17983257 344.31028557 -282 350 C-273.76900308 348.33215948 -265.78395512 345.93136127 -257.75390625 343.5 C-256.29185567 343.05914089 -254.82977321 342.61838748 -253.36766052 342.17773438 C-250.32194974 341.25884939 -247.27706348 340.33728884 -244.23266602 339.4140625 C-240.32842927 338.23054502 -236.4215533 337.05600525 -232.51394749 335.88366699 C-229.50239879 334.97869129 -226.49262102 334.06793739 -223.48332024 333.15551758 C-222.04260786 332.71968473 -220.60126939 332.28591606 -219.15930367 331.85424805 C-217.15192339 331.25261334 -215.14714312 330.64298715 -213.14282227 330.03125 C-212.00192642 329.68642578 -210.86103058 329.34160156 -209.68556213 328.98632812 C-206.89466317 328.1746485 -206.89466317 328.1746485 -205 326 C-205.93513428 325.53327881 -205.93513428 325.53327881 -206.88916016 325.05712891 C-227.87919454 314.51763311 -227.87919454 314.51763311 -236.375 308.5625 C-236.94428223 308.17465332 -237.51356445 307.78680664 -238.10009766 307.38720703 C-240.61260906 305.54818496 -241.8915831 304.31552097 -242.9140625 301.33984375 C-243 299 -243 299 -242 297 C-236.59877377 296.44458329 -233.98233661 298.04180641 -229.9375 301.3125 C-213.71407435 313.53448444 -195.17857247 320.75910671 -176 327 C-175.29214355 327.23831543 -174.58428711 327.47663086 -173.85498047 327.72216797 C-132.46291618 341.47603225 -83.63653279 334.43424817 -45 316 C-44.3385498 315.68450195 -43.67709961 315.36900391 -42.99560547 315.04394531 C-1.52367853 294.8672831 32.43028535 257.27039095 47.875 213.82421875 C49.68538411 208.58055712 51.36678105 203.30115649 53 198 C53.33 196.95585937 53.66 195.91171875 54 194.8359375 C66.78708184 149.68155476 58.05337443 99.07681546 35.5625 58.5625 C16.25242135 24.96716099 -12.9254204 -1.7160178 -48 -18 C-49.67449219 -18.80050781 -49.67449219 -18.80050781 -51.3828125 -19.6171875 C-70.28092551 -28.23973079 -92.43127969 -34.00231192 -113.2109375 -34.2734375 C-114.52648369 -34.29236557 -114.52648369 -34.29236557 -115.86860657 -34.31167603 C-135.12383033 -34.53488375 -153.38238591 -34.49525086 -172 -29 Z " fill="#AC7EDC" transform="translate(319,69)"/>
<path d="M0 0 C1.86234535 -0.01429802 1.86234535 -0.01429802 3.76231384 -0.02888489 C5.10920236 -0.02862344 6.45609088 -0.02768629 7.80297852 -0.02612305 C9.19393542 -0.03001359 10.58489114 -0.034349 11.97584534 -0.03910828 C14.88676815 -0.04655608 17.79756965 -0.04628967 20.70849609 -0.04101562 C24.4285633 -0.03522208 28.14813244 -0.05215564 31.86811733 -0.0753603 C34.73955664 -0.09013146 37.61087691 -0.09096479 40.48234749 -0.08785057 C41.85340423 -0.08836206 43.22446793 -0.09356737 44.59548759 -0.10366249 C46.51674435 -0.11607422 48.43810221 -0.10727066 50.359375 -0.09765625 C51.45015854 -0.09828568 52.54094208 -0.0989151 53.66477966 -0.0995636 C59.8107864 0.64727557 63.77097655 3.70523876 67.74438477 8.2746582 C70.83719533 12.35114205 73.48167262 16.25325965 75.02563477 21.1574707 C76.54393844 25.48960114 77.95709403 29.45984862 81.74438477 32.2746582 C87.92355402 33.90288258 94.3580079 33.40872875 100.69360352 33.27856445 C109.89095609 33.09993412 116.31504743 35.74930538 123.18188477 41.9621582 C130.72651577 50.46758773 132.70677442 58.12160934 132.15844727 69.2746582 C131.31473539 79.41805459 125.44140374 85.81851199 118.30688477 92.5871582 C112.84728977 96.18250125 108.25462316 97.34788798 101.74438477 97.2746582 C101.70147308 97.94419022 101.6585614 98.61372223 101.61434937 99.30354309 C100.22328051 120.8711809 98.69183748 142.42823219 97.04950333 163.97817802 C96.66645138 169.00746888 96.28971712 174.03706905 95.92700195 179.06787109 C95.56898039 184.03135048 95.19550862 188.99344762 94.81129074 193.95496559 C94.66957563 195.81828544 94.53318179 197.68201893 94.40254593 199.5461483 C92.55816353 225.71965391 92.55816353 225.71965391 82.74438477 234.2746582 C78.00054463 237.6395947 73.52209027 239.38131637 67.72409058 239.42855835 C66.93369888 239.43715881 66.14330719 239.44575928 65.32896423 239.45462036 C64.47073563 239.45888031 63.61250702 239.46314026 62.72827148 239.4675293 C61.8171611 239.47570679 60.90605072 239.48388428 59.96733093 239.49230957 C56.95291797 239.51711434 53.93855203 239.53366899 50.92407227 239.5480957 C49.89212864 239.55341938 48.86018501 239.55874306 47.79697037 239.56422806 C42.33250929 239.59094106 36.86807089 239.61032002 31.40356445 239.62475586 C26.89131337 239.63808191 22.37951592 239.66591308 17.86743164 239.70678711 C12.40978689 239.75622173 6.95255282 239.78089044 1.49469376 239.78798294 C-0.57923745 239.79467696 -2.65316017 239.80985051 -4.72696304 239.83387375 C-26.6853074 240.07368632 -26.6853074 240.07368632 -35.02029419 232.71713257 C-41.90374063 225.48251517 -43.85404399 216.89509201 -44.53588867 207.22216797 C-44.66843803 205.6203215 -44.66843803 205.6203215 -44.80366516 203.9861145 C-45.08975 200.48048524 -45.35266182 196.97354473 -45.61499023 193.46606445 C-45.80974851 191.01413228 -46.00583483 188.56230528 -46.20318604 186.11058044 C-46.61280666 180.9813358 -47.01194811 175.8514278 -47.40258789 170.72070312 C-47.90200942 164.16181678 -48.41885851 157.60446386 -48.94250107 151.04747105 C-49.44318167 144.77078028 -49.93591283 138.49347377 -50.42749023 132.21606445 C-50.52108574 131.0272574 -50.61468124 129.83845036 -50.71111298 128.61361885 C-50.97602524 125.22824226 -51.23538688 121.84248799 -51.49291992 118.45654297 C-51.57079239 117.46870316 -51.64866486 116.48086334 -51.72889709 115.46308899 C-52.18352207 109.3878514 -52.34664233 103.36628331 -52.25561523 97.2746582 C-53.16863403 97.22148437 -53.16863403 97.22148437 -54.10009766 97.16723633 C-62.30938428 96.62422768 -69.66219005 93.50301273 -75.25561523 87.2746582 C-81.011203 79.17828115 -84.28878459 71.29476097 -83.25561523 61.2746582 C-81.21114522 50.3650913 -76.04232383 42.98716272 -67.01342773 36.68481445 C-59.17584048 32.67720964 -51.36473772 33.02667074 -42.75561523 33.1496582 C-40.94963867 33.16319336 -40.94963867 33.16319336 -39.10717773 33.17700195 C-36.15644733 33.20042045 -33.20613834 33.23321827 -30.25561523 33.2746582 C-29.96968506 32.54037598 -29.68375488 31.80609375 -29.38916016 31.04956055 C-27.68404007 26.87545007 -25.63045622 22.90649212 -23.56811523 18.8996582 C-23.15883789 18.0746582 -22.74956055 17.2496582 -22.32788086 16.3996582 C-17.25699607 6.58504247 -11.60798593 0.04906709 0 0 Z " fill="#040403" transform="translate(169.255615234375,100.725341796875)"/>
<path d="M0 0 C0.79019531 0.90363281 1.58039063 1.80726562 2.39453125 2.73828125 C10.06606214 11.30213883 17.71236757 11.41627152 28.7265625 12.37890625 C68.15674235 15.86301249 105.31385489 36.62701605 133.52050781 63.58789062 C134.5016484 64.5243456 135.48795247 65.45542231 136.47949219 66.38085938 C168.56582928 96.37322984 190.91887689 143.17675601 193.10786438 187.16769409 C193.16272967 189.34787829 193.19021026 191.5261984 193.203125 193.70703125 C193.21018463 194.50598312 193.21724426 195.304935 193.22451782 196.12809753 C193.45029005 229.16964276 193.45029005 229.16964276 190 244 C189.70198486 245.34191406 189.70198486 245.34191406 189.39794922 246.7109375 C183.95084977 270.80058181 175.02534149 296.04135495 159.04736328 315.28662109 C155.32908588 320.00603082 155.63381309 324.3414303 156.20173836 330.01556587 C156.4748003 332.12454945 156.78861257 334.22346096 157.11743164 336.32446289 C157.29540535 337.50903831 157.29540535 337.50903831 157.47697449 338.71754456 C157.73309761 340.41806156 157.99182204 342.11818846 158.25291634 343.8179493 C158.66622558 346.51222086 159.07143585 349.20760082 159.47447205 351.90342712 C160.62101801 359.56309291 161.78148367 367.22062335 162.94848633 374.87719727 C163.66364852 379.57303871 164.36906627 384.27026313 165.06869316 388.96844292 C165.33641205 390.75232494 165.60792937 392.53564134 165.88337898 394.31834602 C166.26867215 396.81259919 166.64159886 399.30842441 167.01196289 401.80493164 C167.12776703 402.53395691 167.24357117 403.26298218 167.36288452 404.01409912 C168.03478233 408.6556938 167.85663682 412.4437811 167 417 C161.77004193 419.35418503 158.25446561 418.69768263 152.99780273 416.99560547 C152.21801559 416.75848343 151.43822845 416.52136139 150.6348114 416.27705383 C148.06232165 415.49028117 145.49829831 414.67894405 142.93359375 413.8671875 C141.13532388 413.31187525 139.33657338 412.75811728 137.53736877 412.20584106 C132.79790714 410.74647885 128.06523358 409.26620044 123.3336792 407.78143311 C118.559008 406.28707804 113.77831758 404.81226111 108.99804688 403.3359375 C102.7728258 401.41133156 96.54933344 399.48142531 90.33010864 397.53752232 C88.73928475 397.0404957 87.14817282 396.5443899 85.55674744 396.04929256 C82.06847036 394.96363407 78.58410164 393.86916629 75.10951233 392.74040222 C73.96091232 392.37240005 72.81231232 392.00439789 71.62890625 391.62524414 C70.65244141 391.30672989 69.67597656 390.98821564 68.66992188 390.66004944 C60.49836135 388.63990271 51.84623368 391.89389641 43.9375 393.9375 C-5.67860982 406.13480871 -58.4137376 397.5965695 -102.5234375 372.015625 C-105.08053421 370.41835542 -107.54842565 368.75407256 -110 367 C-110.86882812 366.40058594 -111.73765625 365.80117188 -112.6328125 365.18359375 C-129.59799283 353.22096659 -129.59799283 353.22096659 -135.33984375 346.41088867 C-137.6027122 344.48778326 -139.38041536 344.37729881 -142.3125 344.0078125 C-143.37927979 343.86263184 -144.44605957 343.71745117 -145.54516602 343.56787109 C-146.68526123 343.42172363 -147.82535645 343.27557617 -149 343.125 C-158.85667827 341.7469869 -168.31463002 339.88077128 -177.87890625 337.1484375 C-178.90842407 336.8712085 -178.90842407 336.8712085 -179.95874023 336.58837891 C-182 336 -182 336 -183.94946289 335.23583984 C-191.31592642 332.77015842 -197.94440252 335.65916147 -204.95129395 338.06503296 C-207.36574812 338.89326576 -209.78783613 339.69390575 -212.21386719 340.48754883 C-214.86724379 341.35565797 -217.52003325 342.22523388 -220.17050171 343.10218811 C-231.16249587 346.73665024 -242.21168803 350.18553686 -253.27133179 353.60772705 C-256.70239485 354.67272344 -260.12918015 355.75074011 -263.5559082 356.82958984 C-265.69852135 357.49513974 -267.84133469 358.16004559 -269.984375 358.82421875 C-270.94967636 359.13100052 -271.91497772 359.43778229 -272.90953064 359.75386047 C-285.17677126 363.51707792 -285.17677126 363.51707792 -291 363 C-292.79093933 361.88873291 -292.79093933 361.88873291 -294 360 C-294.56034799 350.51287068 -292.30581628 340.40745003 -290.85711479 331.02923775 C-290.48636491 328.62840608 -290.12264441 326.22659358 -289.76051331 323.82444763 C-288.99221321 318.73620502 -288.21541724 313.64927988 -287.4375 308.5625 C-286.53146988 302.63593642 -285.62904185 296.70886432 -284.73506355 290.78046989 C-284.37809866 288.42512636 -284.01494167 286.07079335 -283.651474 283.71644592 C-283.43198146 282.26616883 -283.21277383 280.81584858 -282.99389648 279.36547852 C-282.80149887 278.10864761 -282.60910126 276.85181671 -282.41087341 275.55690002 C-281.5589465 268.18183321 -281.93165495 264.14655029 -286.375 258.1875 C-287.30224763 256.86573193 -288.22392422 255.54004196 -289.140625 254.2109375 C-289.61564453 253.52225586 -290.09066406 252.83357422 -290.58007812 252.12402344 C-302.1447443 234.82474632 -310.03596309 215.15073618 -315 195 C-315.29414795 193.8864917 -315.29414795 193.8864917 -315.59423828 192.75048828 C-322.54129003 165.52463461 -322.31047694 131.05710759 -315 104 C-314.63793457 102.60080322 -314.63793457 102.60080322 -314.26855469 101.17333984 C-302.75220644 57.5198613 -276.64979604 18.54020609 -240 -8 C-239.42733398 -8.41701172 -238.85466797 -8.83402344 -238.26464844 -9.26367188 C-167.80798739 -59.92292003 -66.14810067 -56.76283127 0 0 Z M-172 -29 C-173.02061523 -28.70528809 -174.04123047 -28.41057617 -175.09277344 -28.10693359 C-187.33754638 -24.4921503 -199.04352255 -20.17281212 -210.22363281 -13.98242188 C-211.97778059 -13.01228847 -213.75060503 -12.07617739 -215.5234375 -11.140625 C-229.82499394 -3.36314936 -242.32114542 6.72213613 -254 18 C-254.84949219 18.79792969 -255.69898438 19.59585938 -256.57421875 20.41796875 C-267.43581552 30.87033738 -276.38609396 43.0200434 -284 56 C-284.433125 56.73508789 -284.86625 57.47017578 -285.3125 58.22753906 C-296.15283865 76.94406127 -303.7286128 97.58077143 -307 119 C-307.16411377 119.81090088 -307.32822754 120.62180176 -307.49731445 121.45727539 C-309.23981855 130.51040086 -309.35694237 139.37992124 -309.3125 148.5625 C-309.31034485 149.3619101 -309.3081897 150.16132019 -309.30596924 150.98495483 C-309.25434005 162.91353618 -308.75710941 174.3522117 -306 186 C-305.80664062 186.87269531 -305.61328125 187.74539063 -305.4140625 188.64453125 C-300.4948483 210.59880203 -292.65723441 236.18047174 -277.1953125 253.2265625 C-271.08807789 260.26194827 -271.08807789 260.26194827 -270.92468262 265.34136963 C-271.17492511 268.13547893 -271.56596994 270.87482547 -272.01171875 273.64453125 C-272.23556999 275.20796265 -272.23556999 275.20796265 -272.46394348 276.80297852 C-272.95565879 280.20530716 -273.47806237 283.60218961 -274 287 C-274.33966104 289.32671485 -274.67688277 291.65378705 -275.01171875 293.98120117 C-276.22831019 302.39715438 -277.48126462 310.80758844 -278.74682617 319.21630859 C-279.28810499 322.82055516 -279.82224745 326.42580388 -280.35546875 330.03125 C-280.52104782 331.11772827 -280.68662689 332.20420654 -280.85722351 333.3236084 C-281.68522184 338.95283341 -282.17983257 344.31028557 -282 350 C-273.76900308 348.33215948 -265.78395512 345.93136127 -257.75390625 343.5 C-256.29185567 343.05914089 -254.82977321 342.61838748 -253.36766052 342.17773438 C-250.32194974 341.25884939 -247.27706348 340.33728884 -244.23266602 339.4140625 C-240.32842927 338.23054502 -236.4215533 337.05600525 -232.51394749 335.88366699 C-229.50239879 334.97869129 -226.49262102 334.06793739 -223.48332024 333.15551758 C-222.04260786 332.71968473 -220.60126939 332.28591606 -219.15930367 331.85424805 C-217.15192339 331.25261334 -215.14714312 330.64298715 -213.14282227 330.03125 C-212.00192642 329.68642578 -210.86103058 329.34160156 -209.68556213 328.98632812 C-206.89466317 328.1746485 -206.89466317 328.1746485 -205 326 C-205.93513428 325.53327881 -205.93513428 325.53327881 -206.88916016 325.05712891 C-227.87919454 314.51763311 -227.87919454 314.51763311 -236.375 308.5625 C-236.94428223 308.17465332 -237.51356445 307.78680664 -238.10009766 307.38720703 C-240.61260906 305.54818496 -241.8915831 304.31552097 -242.9140625 301.33984375 C-243 299 -243 299 -242 297 C-236.59877377 296.44458329 -233.98233661 298.04180641 -229.9375 301.3125 C-213.71407435 313.53448444 -195.17857247 320.75910671 -176 327 C-175.29214355 327.23831543 -174.58428711 327.47663086 -173.85498047 327.72216797 C-132.46291618 341.47603225 -83.63653279 334.43424817 -45 316 C-44.3385498 315.68450195 -43.67709961 315.36900391 -42.99560547 315.04394531 C-1.52367853 294.8672831 32.43028535 257.27039095 47.875 213.82421875 C49.68538411 208.58055712 51.36678105 203.30115649 53 198 C53.33 196.95585937 53.66 195.91171875 54 194.8359375 C66.78708184 149.68155476 58.05337443 99.07681546 35.5625 58.5625 C16.25242135 24.96716099 -12.9254204 -1.7160178 -48 -18 C-49.67449219 -18.80050781 -49.67449219 -18.80050781 -51.3828125 -19.6171875 C-70.28092551 -28.23973079 -92.43127969 -34.00231192 -113.2109375 -34.2734375 C-114.52648369 -34.29236557 -114.52648369 -34.29236557 -115.86860657 -34.31167603 C-135.12383033 -34.53488375 -153.38238591 -34.49525086 -172 -29 Z M21 22 C22.175625 23.546875 22.175625 23.546875 23.375 25.125 C24.58591318 26.74807847 25.79384971 28.37337899 27 30 C27.75023437 31.00675781 28.50046875 32.01351562 29.2734375 33.05078125 C61.81949471 77.2721736 73.4879806 129.57832448 65.54785156 183.76220703 C64.08913 192.38322548 61.69713047 200.69483125 59 209 C58.74766602 209.79776855 58.49533203 210.59553711 58.23535156 211.41748047 C42.45471509 260.4958692 6.43717636 299.54118656 -38.8984375 323.05859375 C-64.90863456 336.00781645 -93.19642237 341.5617136 -122 343 C-120.59692426 347.20922723 -117.57029731 348.95023565 -114.125 351.5 C-113.4124707 352.02827393 -112.69994141 352.55654785 -111.96582031 353.10083008 C-85.92637093 372.01016172 -55.92135372 383.96952604 -24 388 C-22.54980469 388.19529297 -22.54980469 388.19529297 -21.0703125 388.39453125 C4.16039276 391.13699921 33.23979253 389.30942667 57.03515625 379.78515625 C66.0192002 377.40598255 75.84456662 381.8556231 84.41015625 384.515625 C85.90575044 384.97372778 87.40155867 385.43113231 88.89756775 385.88787842 C92.82429676 387.08884051 96.74799858 388.29941032 100.67114258 389.51202393 C104.61420947 390.7288596 108.56018044 391.9361983 112.50585938 393.14453125 C118.33620352 394.93171089 124.16545776 396.72236822 129.99243164 398.52050781 C130.64838349 398.72267033 131.30433535 398.92483284 131.98016453 399.13312149 C135.49256078 400.21767386 139.00064123 401.31464346 142.50460815 402.42614746 C143.23998778 402.65863567 143.97536741 402.89112389 144.73303127 403.1306572 C146.14517414 403.5776767 147.55657251 404.0270569 148.96711063 404.47911453 C152.41604871 405.61662422 152.41604871 405.61662422 156 406 C155.46239604 397.08612207 154.41756283 388.311351 153.04231071 379.49246979 C152.70548598 377.3305622 152.37523154 375.1677335 152.04652405 373.00457764 C151.11233168 366.86513733 150.16584573 360.72760437 149.2175293 354.59033203 C148.63370303 350.80902729 148.05644378 347.02676329 147.48288155 343.24388885 C147.16009305 341.12890028 146.82966122 339.01519911 146.49900818 336.90142822 C143.80673505 319.15041578 143.80673505 319.15041578 146.8359375 313.69140625 C147.66522908 312.63481992 148.51266308 311.5922933 149.375 310.5625 C177.21473245 274.3439158 187.08966816 225.53410595 181.875 180.8125 C175.48536497 133.18244622 150.48332271 88.80283692 112.43359375 59.18359375 C93.19965651 44.58351692 72.13645752 33.90762637 49 27 C47.94941406 26.68289062 46.89882813 26.36578125 45.81640625 26.0390625 C37.78878305 23.73894919 29.40381743 21.5457396 21 22 Z " fill="#020101" transform="translate(319,69)"/>
<path d="M0 0 C44.22 0 88.44 0 134 0 C132.84969268 24.15645377 132.84969268 24.15645377 132.19970703 32.16137695 C132.12635132 33.09768951 132.05299561 34.03400208 131.97741699 34.99868774 C131.74138084 37.99553862 131.50018222 40.99193638 131.2578125 43.98828125 C131.17421352 45.02919607 131.09061455 46.07011089 131.00448227 47.14256859 C130.56403277 52.624585 130.11951339 58.10625249 129.67138672 63.58764648 C129.21166869 69.22073025 128.76620592 74.85485045 128.32379341 80.48931599 C127.97811089 84.85920865 127.62204575 89.22821096 127.26314926 93.59703636 C127.09423742 95.67505068 126.92918968 97.75338305 126.76819229 99.83202553 C126.54281899 102.72928616 126.30271895 105.62497773 126.05908203 108.52075195 C125.96540848 109.78865318 125.96540848 109.78865318 125.86984253 111.08216858 C125.28826515 117.70311325 124.26510579 124.37928526 119 128.9375 C114.11945658 132.2928736 109.94053149 132.15888507 104.2175293 132.17700195 C102.87070572 132.18685875 102.87070572 132.18685875 101.49667358 132.19691467 C98.52252113 132.21664056 95.54841914 132.22830819 92.57421875 132.23828125 C91.55843058 132.24235678 90.5426424 132.2464323 89.49607277 132.25063133 C84.12051217 132.27148819 78.74497707 132.28579207 73.36938477 132.29516602 C67.81755408 132.30623474 62.26612372 132.34064127 56.71443462 132.38033772 C52.44474034 132.40648131 48.17514182 132.41485581 43.90537453 132.41844749 C41.85885728 132.42331861 39.81234446 132.43494748 37.76590538 132.45348549 C34.90049862 132.47783055 32.0361328 132.4769204 29.1706543 132.4699707 C27.90565346 132.48918579 27.90565346 132.48918579 26.61509705 132.50878906 C20.06902737 132.45099018 16.4858439 130.41679268 11.75 125.8125 C7.7205974 119.33667439 7.58976806 111.14441222 7.03857422 103.69775391 C6.9602536 102.70949112 6.88193298 101.72122833 6.80123901 100.70301819 C6.54603007 97.46132659 6.30012512 94.21900738 6.0546875 90.9765625 C5.87862679 88.70645772 5.70211599 86.43638781 5.525177 84.16635132 C5.15643276 79.41751919 4.79212152 74.66837463 4.43115234 69.91894531 C3.96998516 63.8539566 3.49936073 57.78974831 3.02558708 51.7257328 C2.66029395 47.04005655 2.29926724 42.35405922 1.93957901 37.66794968 C1.76766877 35.4329198 1.59463936 33.1979757 1.42043686 30.96312332 C1.17697314 27.82939816 0.9390761 24.69529716 0.70263672 21.56103516 C0.59514099 20.19687721 0.59514099 20.19687721 0.48547363 18.80516052 C0.01667415 12.4831829 0 6.38226559 0 0 Z " fill="#CACACA" transform="translate(127,198)"/>
<path d="M0 0 C1.00733897 -0.00679667 1.00733897 -0.00679667 2.03502822 -0.01373065 C4.28422542 -0.02638584 6.53318082 -0.02475357 8.78240967 -0.02310181 C10.39561779 -0.02908647 12.00882305 -0.03589188 13.62202454 -0.04345703 C18.00443176 -0.06113318 22.3867609 -0.06581316 26.76920033 -0.0670886 C29.5084114 -0.06851015 32.24760263 -0.07277987 34.98680878 -0.07808304 C44.54678101 -0.09659052 54.10669746 -0.10475298 63.66668701 -0.10317993 C72.57126428 -0.10197919 81.47559891 -0.12306648 90.38011479 -0.15466726 C98.02952565 -0.18084423 105.67885735 -0.19154659 113.32831264 -0.19026911 C117.89491855 -0.18975978 122.46130896 -0.19542658 127.02787018 -0.21662521 C131.3256655 -0.23603091 135.62304035 -0.23611627 139.92085075 -0.22159195 C141.49458113 -0.21950545 143.06833798 -0.22419533 144.64202309 -0.23631287 C161.54542051 -0.35799578 161.54542051 -0.35799578 168.33221436 6.23226929 C172.95380566 12.97765544 175.20961574 17.96584877 174.30877686 26.26742554 C172.65095155 33.03183681 169.56007106 38.03524922 163.65718079 41.87251282 C156.95208773 45.48927267 149.75975674 44.95901992 142.35931396 44.89852905 C140.75521556 44.90367436 139.15112282 44.91096024 137.54704285 44.92021179 C133.21225124 44.93865491 128.87807829 44.92583303 124.54331279 44.90612149 C119.9960163 44.88967763 115.44875723 44.89855572 110.90144348 44.90364075 C103.26783419 44.90815485 95.63447049 44.8923332 88.00091553 44.86434937 C79.18765224 44.83228905 70.37483147 44.83231988 61.56153673 44.84956414 C53.06603404 44.86545116 44.57069288 44.85868242 36.07519722 44.84162712 C32.46730792 44.834772 28.8595487 44.83577318 25.2516613 44.84317207 C21.00052359 44.8508574 16.74988699 44.83863597 12.49883461 44.81132317 C10.94285952 44.80446216 9.38683741 44.80431677 7.83086395 44.8115387 C-8.94069691 44.88038827 -8.94069691 44.88038827 -15.71466064 38.30258179 C-16.16067627 37.65160522 -16.60669189 37.00062866 -17.06622314 36.32992554 C-17.52770752 35.6815271 -17.98919189 35.03312866 -18.46466064 34.36508179 C-21.95484387 28.39620155 -22.44641966 23.07375361 -21.69122314 16.26742554 C-19.70723932 9.32942222 -14.97668357 4.95024718 -8.99809647 1.20747948 C-5.90944107 -0.0511517 -3.33493171 0.00929388 0 0 Z " fill="#989898" transform="translate(117.69122314453125,143.73257446289063)"/>
<path d="M0 0 C37.76626204 0.08982246 76.38167264 13.38517753 105.69580078 37.38037109 C106.22512207 37.80962891 106.75444336 38.23888672 107.29980469 38.68115234 C119.62706562 48.7135406 130.26109539 59.58592324 139.69580078 72.38037109 C140.11861328 72.94820313 140.54142578 73.51603516 140.97705078 74.10107422 C146.84775404 82.09073444 151.48304006 90.53266784 155.82080078 99.44287109 C156.30677734 100.43085693 156.79275391 101.41884277 157.29345703 102.43676758 C161.55982906 111.47111951 161.55982906 111.47111951 160.69580078 116.38037109 C158.69580078 118.38037109 158.69580078 118.38037109 156.32080078 118.88037109 C153.69580078 118.38037109 153.69580078 118.38037109 151.78173828 115.89599609 C149.79311829 112.73359619 148.26916903 109.4214132 146.75512695 106.01196289 C139.30823776 89.26976329 129.09241784 74.81340456 116.69580078 61.38037109 C115.94943359 60.56310547 115.20306641 59.74583984 114.43408203 58.90380859 C83.92484791 26.98472077 40.05635652 11.75450164 -3.25732422 9.68896484 C-5.30419922 9.38037109 -5.30419922 9.38037109 -7.30419922 7.38037109 C-7.55419922 4.88037109 -7.55419922 4.88037109 -7.30419922 2.38037109 C-4.84476501 -0.07906312 -3.36722992 0.07297402 0 0 Z " fill="#040401" transform="translate(196.30419921875,42.61962890625)"/>
<path d="M0 0 C1.18180344 -0.02251831 2.36360687 -0.04503662 3.58122253 -0.0682373 C9.00560334 -0.13895775 14.42980564 -0.19696701 19.85449219 -0.23535156 C22.71740919 -0.25759948 25.57901676 -0.29931598 28.44140625 -0.35839844 C31.89865902 -0.42962181 35.35468289 -0.46620258 38.81263161 -0.47846985 C40.76600686 -0.49388736 42.71901287 -0.54371717 44.67179871 -0.59411621 C53.33399914 -0.57459404 53.33399914 -0.57459404 56.57086182 1.69487 C58.13500723 3.4720293 59.31607474 5.16392913 60.47387695 7.22460938 C60.88521378 7.90316483 61.2965506 8.58172028 61.72035217 9.28083801 C62.83834967 11.16728948 63.85048585 13.08500225 64.84887695 15.03710938 C65.38061523 16.03774414 65.38061523 16.03774414 65.9230957 17.05859375 C68.47387695 21.93856328 68.47387695 21.93856328 68.47387695 24.22460938 C39.43387695 24.22460938 10.39387695 24.22460938 -19.52612305 24.22460938 C-16.69778835 15.73960529 -13.57356995 7.06392252 -6.52612305 1.22460938 C-4.78335593 -0.51815774 -2.37310803 0.0428804 0 0 Z " fill="#CACACA" transform="translate(169.526123046875,109.775390625)"/>
<path d="M0 0 C0.99 0.103125 1.98 0.20625 3 0.3125 C5.60144785 4.21467178 5.29539439 7.50710322 5.29052734 12.03491211 C5.30060318 13.37192421 5.30060318 13.37192421 5.31088257 14.73594666 C5.32990639 17.68730212 5.33378885 20.63843076 5.3359375 23.58984375 C5.34236193 25.63863723 5.34909002 27.68742978 5.35610962 29.73622131 C5.36809304 34.03274666 5.3717893 38.32919154 5.37060547 42.62573242 C5.37040212 48.13519381 5.39771627 53.6441403 5.43214989 59.15347958 C5.45436998 63.38536456 5.45844453 67.61712461 5.45738602 71.84906197 C5.4597489 73.88047627 5.46861086 75.91189366 5.48405075 77.94325066 C5.50361359 80.78276689 5.49791118 83.62115962 5.48583984 86.46069336 C5.49707886 87.30186707 5.50831787 88.14304077 5.51989746 89.00970459 C5.4799654 92.70001709 5.33200589 94.86440498 3.10244751 97.87355042 C1 99.3125 1 99.3125 -1.125 99.1875 C-3 98.3125 -3 98.3125 -5 96.3125 C-5.19886124 93.34043006 -5.27264641 90.46150969 -5.25878906 87.48828125 C-5.2622937 86.57436615 -5.26579834 85.66045105 -5.26940918 84.71884155 C-5.27823649 81.68748455 -5.27237381 78.65635952 -5.265625 75.625 C-5.26697136 73.52514603 -5.26891165 71.42529236 -5.27142334 69.32543945 C-5.27437596 64.92038002 -5.27007251 60.51540159 -5.26074219 56.11035156 C-5.24934761 50.45395969 -5.25590634 44.79775759 -5.26788712 39.14137268 C-5.27510198 34.80406251 -5.2728195 30.46679759 -5.26763153 26.12948608 C-5.266294 24.04340594 -5.26794635 21.95732174 -5.27259064 19.87124634 C-5.27764973 16.95962586 -5.26995432 14.048316 -5.25878906 11.13671875 C-5.26283752 10.26808197 -5.26688599 9.39944519 -5.27105713 8.50448608 C-5.21427955 0.54315412 -5.21427955 0.54315412 0 0 Z " fill="#030303" transform="translate(194,211.6875)"/>
<path d="M0 0 C2.5 0.25 2.5 0.25 4.5 2.25 C4.9230957 4.8059082 4.9230957 4.8059082 5.17578125 8.05078125 C5.27858398 9.24525879 5.38138672 10.43973633 5.48730469 11.67041016 C5.59461914 12.9547998 5.70193359 14.23918945 5.8125 15.5625 C8.0250872 38.97282193 13.54928174 61.3013353 25.01098633 82.0012207 C27.11717702 85.91555131 28.07785463 88.80246719 27.5 93.25 C25.5 95.25 25.5 95.25 23.06445312 95.61791992 C20.5 95.25 20.5 95.25 18.85742188 93.6262207 C15.44252986 88.06141162 12.52136521 82.46111065 10 76.4375 C9.61690674 75.52661621 9.23381348 74.61573242 8.83911133 73.67724609 C-0.35633155 51.31099573 -6.67327443 26.58561943 -4.5 2.25 C-2.5 0.25 -2.5 0.25 0 0 Z " fill="#040301" transform="translate(23.5,213.75)"/>
<path d="M0 0 C3.625 0.375 3.625 0.375 7 1 C8.47484928 5.81913534 9.46443838 10.45114677 10.14501953 15.46069336 C10.24284729 16.17062943 10.34067505 16.88056549 10.44146729 17.61201477 C10.76043347 19.93728485 11.07189262 22.26348518 11.3828125 24.58984375 C11.60385833 26.2198128 11.82520734 27.84974076 12.04684448 29.47962952 C12.50905032 32.88758566 12.967517 36.29601841 13.42333984 39.70483398 C14.00571449 44.0576981 14.59749354 48.4092218 15.19211006 52.76042843 C15.65064519 56.12379338 16.10409716 59.48782895 16.55605698 62.85208321 C16.77217208 64.45614314 16.98985154 66.05999317 17.2091713 67.66361809 C17.51586674 69.91172484 17.81566544 72.16065212 18.11376953 74.40991211 C18.28538605 75.68563583 18.45700256 76.96135956 18.63381958 78.27574158 C19.67185123 88.83310049 19.67185123 88.83310049 17.8125 92.0625 C16 93 16 93 13.4375 92.875 C11 92 11 92 9 89 C8.58172546 87.01702272 8.25421781 85.0143619 7.97851562 83.0065918 C7.8049353 81.77067795 7.63135498 80.5347641 7.45251465 79.26139832 C7.27027781 77.90735845 7.08819361 76.55329804 6.90625 75.19921875 C6.71280145 73.80205459 6.51865766 72.40498653 6.32385254 71.00801086 C5.81147135 67.32028155 5.30834473 63.63134709 4.80718994 59.94207764 C4.30259052 56.23864071 3.78973878 52.53634936 3.27734375 48.83398438 C2.69811287 44.64534878 2.11968374 40.45661637 1.54748535 36.26701355 C1.37390503 34.99642593 1.20032471 33.72583832 1.02148438 32.41674805 C0.85382568 31.18846283 0.68616699 29.96017761 0.51342773 28.69467163 C-0.16605305 23.80506751 -0.88495929 18.92144066 -1.61169434 14.03865051 C-2.13612765 9.9347455 -2.27535112 6.13026685 -2 2 C-1.34 1.34 -0.68 0.68 0 0 Z " fill="#040404" transform="translate(152,218)"/>
<path d="M0 0 C2.4375 0.375 2.4375 0.375 4.4375 2.375 C5.83234473 11.309592 3.42584957 21.17158795 2.171875 30.0546875 C1.93471683 31.7571552 1.69767867 33.45963963 1.46075439 35.16213989 C0.96479554 38.71137409 0.46287152 42.25970898 -0.04248047 45.80761719 C-0.68854892 50.35154686 -1.31253018 54.89822132 -1.93130875 59.4459362 C-2.41238216 62.95456847 -2.90856565 66.46094194 -3.40898895 69.96686172 C-3.64570139 71.64301313 -3.8768985 73.31995319 -4.10242462 74.99764633 C-4.41863038 77.33808326 -4.75594039 79.67454578 -5.09863281 82.01123047 C-5.18710983 82.70114578 -5.27558685 83.3910611 -5.366745 84.10188293 C-6.02493716 88.39076221 -7.03600215 90.77327363 -10.5625 93.375 C-13.25 93.25 -13.25 93.25 -15.5625 92.375 C-19.45147844 84.59704311 -14.57318364 68.06739025 -13.3828125 59.3984375 C-13.16717971 57.81377788 -12.9515943 56.22911182 -12.73605347 54.6444397 C-12.28724016 51.35476759 -11.83445212 48.06566924 -11.37939453 44.77685547 C-10.79764839 40.56642418 -10.2313872 36.35405881 -9.66859627 32.14105797 C-9.23056512 28.88172168 -8.78179163 25.62393067 -8.33001328 22.36647415 C-8.11637452 20.812898 -7.90668639 19.25877312 -7.70108414 17.70411301 C-7.41376323 15.5397722 -7.11137185 13.37804834 -6.80517578 11.21630859 C-6.6372049 9.98834564 -6.46923401 8.76038269 -6.2961731 7.49520874 C-5.33251539 3.39690771 -4.39019219 0.64246715 0 0 Z " fill="#030303" transform="translate(233.5625,217.625)"/>
<path d="M0 0 C4.45500779 0.59207559 8.55385536 1.73851727 12.82617188 3.06958008 C28.4431937 7.88638589 44.44668609 10.07624896 60.76953125 10.59375 C61.50558594 10.7278125 62.24164063 10.861875 63 11 C65 14 65 14 64.75 16.625 C64.37875 17.800625 64.37875 17.800625 64 19 C48.90967499 26.54516251 19.88749802 16.4710656 5.07128906 11.75415039 C1.6717281 10.51638002 -1.30254035 9.35132807 -3 6.0625 C-3 3.2359162 -1.84100939 2.06193051 0 0 Z " fill="#060502" transform="translate(134,374)"/>
</svg>
