<?xml version="1.0" encoding="UTF-8"?>
<svg version="1.1" xmlns="http://www.w3.org/2000/svg" viewBox="0 0 512 512">
<path d="M0 0 C1.19878996 1.3057549 2.35726788 2.64966381 3.47265625 4.02734375 C4.64568621 5.35400028 5.82147185 6.67822534 7 8 C7.57733887 8.66660645 8.15467773 9.33321289 8.74951172 10.02001953 C11.11343267 12.59467011 13.71887327 14.79734716 16.37719727 17.06030273 C21.54648248 21.6225376 26.27718543 26.67266125 31.11328125 31.58203125 C35.5337332 36.04316221 40.00450671 40.34685398 44.77099609 44.43652344 C47.22430074 46.5618607 49.543765 48.80432484 51.84765625 51.08984375 C52.66878906 51.89679688 53.48992187 52.70375 54.3359375 53.53515625 C59.21188481 58.92208205 60.8007458 63.50475072 60.8671875 70.70703125 C60.46381912 73.44993623 59.35782643 75.28799759 58.03515625 77.71484375 C56.79783412 80.23016147 56.79783412 80.23016147 56.53515625 82.96484375 C58.09731168 86.24400383 60.09231785 88.87224013 62.2890625 91.76171875 C71.67567776 105.14784834 73.07634959 123.23654112 70.34765625 138.90234375 C69.02896849 145.78081766 66.95130872 151.81390255 63.53515625 157.96484375 C63.04273438 158.86589844 62.5503125 159.76695312 62.04296875 160.6953125 C52.3360452 177.15992685 37.84462244 187.13507398 19.53515625 191.96484375 C16.13619294 192.73849102 12.99973012 193.09300324 9.515625 193.09765625 C8.57525391 193.09894531 7.63488281 193.10023438 6.66601562 193.1015625 C5.69470703 193.09769531 4.72339844 193.09382812 3.72265625 193.08984375 C2.76294922 193.09371094 1.80324219 193.09757813 0.81445312 193.1015625 C-0.12978516 193.10027344 -1.07402344 193.09898437 -2.046875 193.09765625 C-2.89483643 193.09652832 -3.74279785 193.09540039 -4.61645508 193.09423828 C-7.46484375 192.96484375 -7.46484375 192.96484375 -11.17114258 191.87695312 C-14.19573919 191.49445394 -15.24310953 191.8163412 -17.81422424 193.53829956 C-20.52998807 196.00169475 -23.06028237 198.57649999 -25.58203125 201.23828125 C-26.52781554 202.20340968 -27.47569666 203.16648736 -28.42556763 204.12759399 C-30.91427978 206.65622924 -33.37520799 209.21025101 -35.83074951 211.77105713 C-38.82374107 214.88243679 -41.84816512 217.96320879 -44.86812019 221.0483799 C-47.21594234 223.44803972 -49.55688195 225.85334524 -51.88742065 228.26986694 C-53.13980026 229.56593369 -53.13980026 229.56593369 -54.41748047 230.88818359 C-55.15279999 231.65286957 -55.88811951 232.41755554 -56.64572144 233.20541382 C-58.46484375 234.96484375 -58.46484375 234.96484375 -60.46484375 235.96484375 C-62.48203366 235.72143346 -64.49861138 235.47055373 -66.50976372 235.18146896 C-85.25212371 232.65522374 -102.88785772 232.79586672 -118.48681641 244.53613281 C-129.48052285 253.30316269 -139.26105244 263.38490494 -148.91515434 273.57303309 C-152.2885949 277.11227264 -155.76403304 280.5197592 -159.31860352 283.87646484 C-185.0160504 306.68781733 -185.0160504 306.68781733 -196.49047852 337.41723633 C-196.63052696 343.52425217 -196.22734283 349.56490626 -195.7722168 355.6516571 C-194.84008113 368.76932194 -195.74246116 377.04487235 -204.453125 387.2734375 C-207.78421042 391.08563806 -211.35070586 394.56457445 -215.12848663 397.93087769 C-216.80761333 399.4293568 -218.45589564 400.95713898 -220.10296631 402.49072266 C-235.7996548 416.92610595 -253.11851927 429.2054992 -275.35205078 428.45239258 C-310.21563774 424.28190319 -340.07987849 381.1958755 -361.65893555 356.70947266 C-362.23767237 356.05279854 -362.81640919 355.39612442 -363.41268349 354.71955109 C-366.93297141 350.68360201 -368.57022012 348.68000397 -368.68945312 343.36669922 C-368.72323059 341.93413284 -368.72323059 341.93413284 -368.75769043 340.47262573 C-368.82875803 336.08795061 -368.88625174 331.70344614 -368.92480469 327.31835938 C-368.95137618 325.00987969 -368.99226163 322.70151791 -369.04785156 320.39355469 C-369.12719772 317.06006009 -369.16015358 313.72883332 -369.18359375 310.39453125 C-369.21658569 309.37028046 -369.24957764 308.34602966 -369.28356934 307.29074097 C-369.26923034 302.11634165 -368.90645659 298.8347955 -365.43359375 294.87133789 C-364.11506222 293.56473311 -362.79192385 292.26276511 -361.46484375 290.96484375 C-360.14549782 289.39714545 -358.84476779 287.81363999 -357.56054688 286.21704102 C-353.69279181 281.51580679 -349.66570578 276.97914165 -345.57421875 272.47192383 C-343.85942371 270.53684308 -342.18911209 268.5612383 -340.5703125 266.54516602 C-327.05567142 249.82190363 -327.05567142 249.82190363 -317.11052704 248.6990242 C-311.55225154 248.61037179 -306.01487184 249.13776126 -300.47708511 249.56690216 C-281.24972719 250.95643019 -269.27373916 248.07551473 -254.36981201 235.43315125 C-245.67203741 227.63644608 -237.5163683 219.34079507 -229.49710393 210.85471183 C-226.08716856 207.26693357 -222.57488947 203.81049174 -218.98339844 200.4050293 C-192.1154434 175.94261213 -192.1154434 175.94261213 -180.70640373 142.82530117 C-180.50793707 135.00094051 -181.30929855 127.32162111 -182.20073414 119.55995369 C-182.53580755 115.98925276 -182.73202755 113.62125378 -181.36402893 110.26039124 C-179.55549052 108.15759056 -177.68014526 106.629502 -175.46484375 104.96484375 C-173.93754392 103.43097436 -172.4297396 101.87753366 -170.93823242 100.30883789 C-169.25578396 98.61987319 -167.57052024 96.93370935 -165.8828125 95.25 C-164.53972771 93.90548012 -164.53972771 93.90548012 -163.16950989 92.53379822 C-161.29073599 90.65434773 -159.41100384 88.77592188 -157.52954102 86.89916992 C-155.11742602 84.49280099 -152.70989568 82.08190251 -150.30362988 79.66968632 C-147.99911352 77.36069942 -145.69080415 75.05551231 -143.3828125 72.75 C-142.5182695 71.88343277 -141.6537265 71.01686554 -140.76298523 70.1240387 C-139.56582634 68.93160805 -139.56582634 68.93160805 -138.34448242 67.71508789 C-137.64167648 67.01307755 -136.93887054 66.3110672 -136.21476746 65.58778381 C-133.38963709 62.96765972 -131.53172243 62.82279701 -127.77490234 62.74023438 C-126.79983734 62.71771606 -125.82477234 62.69519775 -124.82015991 62.67199707 C-120.34388956 62.60094448 -115.86778662 62.5434373 -111.39111328 62.50488281 C-109.03413537 62.47830888 -106.67727301 62.43742082 -104.32080078 62.38183594 C-100.91781729 62.30250786 -97.51705525 62.26953671 -94.11328125 62.24609375 C-93.06715668 62.21310181 -92.0210321 62.18010986 -90.94320679 62.14611816 C-85.3879706 62.16120244 -82.17391788 62.65383296 -77.92431641 66.38476562 C-76.76771541 67.57478792 -75.61416485 68.76778905 -74.46484375 69.96484375 C-73.47484375 70.62484375 -72.48484375 71.28484375 -71.46484375 71.96484375 C-69.48484375 69.98484375 -67.50484375 68.00484375 -65.46484375 65.96484375 C-69.78485135 55.81816388 -83.8522608 41.43554572 -93.99023438 36.81347656 C-97.84571424 35.96977955 -101.17725363 36.38439248 -105.00288391 37.18911743 C-109.04161726 37.90419039 -112.64937691 37.91832064 -116.73674011 37.62362671 C-130.64522067 36.9430897 -139.88626581 38.69971349 -150.28490162 47.91236305 C-156.02703836 53.25924592 -161.46069869 58.89149814 -166.83868814 64.60105181 C-170.10266033 68.03596482 -173.44540419 71.3925777 -176.77983093 74.75888062 C-183.05741282 81.11977078 -189.2630884 87.54612109 -195.44468993 94.00017583 C-202.49572056 101.35496009 -209.62531222 108.63152208 -216.76190054 115.90316319 C-231.41738008 130.83946436 -245.97355904 145.86929802 -260.46484375 160.96484375 C-259.51438835 162.07427481 -258.56385165 163.18363622 -257.61328125 164.29296875 C-257.08395996 164.91075195 -256.55463867 165.52853516 -256.00927734 166.16503906 C-254.70571365 167.68414617 -253.39822106 169.19988054 -252.08984375 170.71484375 C-249.69640504 175.50172116 -249.61632054 179.7173976 -250.46484375 184.96484375 C-252.38046642 190.05904387 -255.52069258 193.9365434 -260.4453125 196.33984375 C-265.92553973 198.03585218 -270.66216061 197.89324762 -275.75805664 195.26879883 C-279.39001073 193.13671263 -282.40872243 190.5204238 -285.3984375 187.5703125 C-285.92123795 187.05986893 -286.44403839 186.54942535 -286.98268127 186.02351379 C-288.07468833 184.9509252 -289.16270609 183.87426092 -290.24682617 182.79370117 C-291.90570138 181.14901484 -293.58943704 179.53287476 -295.27539062 177.91601562 C-296.33886832 176.86492664 -297.40077473 175.81224494 -298.4609375 174.7578125 C-298.96394882 174.28151901 -299.46696014 173.80522552 -299.98521423 173.3144989 C-302.44656657 170.80393955 -303.43014294 169.19490852 -303.95778465 165.69666862 C-303.29189759 160.65554928 -301.22917304 158.76256042 -297.66983032 155.32131958 C-296.73477175 154.3762312 -296.73477175 154.3762312 -295.78082311 153.41205013 C-293.6873962 151.30474962 -291.56991489 149.22343327 -289.45166016 147.14111328 C-287.94603838 145.63582896 -286.44194966 144.12900989 -284.93928528 142.62077332 C-280.85368129 138.52888331 -276.74674367 134.4590299 -272.63555574 130.39286661 C-268.3414684 126.13879124 -264.06678282 121.86530921 -259.78988647 117.59396362 C-252.60667326 110.42546937 -245.41089309 103.26980339 -238.20605469 96.12304688 C-228.03444201 86.03339191 -217.88567269 75.92100075 -207.74137998 65.80388856 C-199.87486112 57.95998902 -192.00255206 50.12190099 -184.12890625 42.28515625 C-183.2820855 41.44224108 -182.43526475 40.59932591 -181.56278276 39.73086786 C-176.70214401 34.8935236 -171.83854686 30.05918786 -166.97047997 25.22931862 C-165.49337229 23.76315666 -164.01709553 22.29615706 -162.54169273 20.8282795 C-160.53474004 18.83196991 -158.5247383 16.83878431 -156.51382446 14.84646606 C-155.92433506 14.25883865 -155.33484565 13.67121125 -154.72749293 13.06577694 C-150.79800378 9.18245107 -148.86836892 7.89614564 -143.42793274 7.42698669 C-142.36143494 7.33305634 -141.29493713 7.23912598 -140.19612122 7.14234924 C-139.02063217 7.0430864 -137.84514313 6.94382355 -136.6340332 6.84155273 C-135.39962494 6.73411743 -134.16521667 6.62668213 -132.8934021 6.51599121 C-129.49825215 6.22154486 -126.10282257 5.93086569 -122.70717645 5.6422298 C-119.86513581 5.40022528 -117.02330658 5.15578663 -114.18147057 4.91139275 C-107.46236929 4.33365601 -100.74289956 3.76035161 -94.02319336 3.18969727 C-87.12237661 2.60357961 -80.222247 2.00983194 -73.3224147 1.41224617 C-67.38202909 0.8980518 -61.44122748 0.38887119 -55.50008172 -0.11646408 C-51.95978054 -0.41764888 -48.41966135 -0.72065692 -44.87993813 -1.02856636 C-5.4315734 -4.45360974 -5.4315734 -4.45360974 0 0 Z M27.53515625 84.96484375 C19.91747524 92.03074102 14.21759702 99.22297334 9.2421875 108.33203125 C6.98415381 112.32195486 5.16092177 114.97985348 0.62109375 116.60546875 C-1.97075076 117.05200376 -4.34187246 116.87294065 -6.96484375 116.71484375 C-10.3358935 116.58465148 -11.91587855 116.58938569 -14.7265625 118.51171875 C-16.44543526 120.25499741 -17.99998918 122.00503832 -19.46484375 123.96484375 C-18.065754 127.16270037 -16.3868727 129.13314438 -13.89624023 131.55078125 C-9.62821963 136.34655557 -9.46825869 140.35546952 -9.5625 146.58984375 C-9.55020859 147.57734619 -9.53791718 148.56484863 -9.5252533 149.58227539 C-9.49367113 152.7105669 -9.50975785 155.83648143 -9.52734375 158.96484375 C-9.51422613 161.09637594 -9.49798198 163.22789133 -9.47851562 165.359375 C-9.4377897 170.56154995 -9.43610559 175.7626133 -9.46484375 180.96484375 C2.76723809 185.04220436 17.58804493 181.86486663 28.97265625 176.90234375 C42.27367744 170.25183316 52.64048201 157.87791044 57.53515625 143.96484375 C62.27473948 126.75768216 60.54892186 112.88633648 52.3515625 97.0234375 C50.57697921 94.03526821 48.97709665 91.44302817 46.53515625 88.96484375 C44.00735841 88.2609819 44.00735841 88.2609819 41.28515625 88.33984375 C36.08319873 88.10942147 32.29726182 87.03141787 27.53515625 84.96484375 Z " fill="#232324" transform="translate(404.46484375,47.03515625)"/>
<path d="M0 0 C0.70129028 0.7422583 0.70129028 0.7422583 1.41674805 1.49951172 C1.95106445 2.05123047 2.48538086 2.60294922 3.03588867 3.17138672 C3.84896484 4.04150391 3.84896484 4.04150391 4.6784668 4.92919922 C8.0474942 8.46606395 11.41339705 11.899867 15.12768555 15.07763672 C21.28931626 20.38436796 26.88366448 26.2791092 32.58862305 32.06591797 C37.16078901 36.67801551 41.7718009 41.14844758 46.7043457 45.37402344 C48.64889675 47.04772018 50.49374226 48.79845833 52.3034668 50.61669922 C52.86936523 51.18001953 53.43526367 51.74333984 54.01831055 52.32373047 C56.6389339 55.20261816 56.7749436 57.9209477 56.69799805 61.76123047 C56.3659668 63.80419922 56.3659668 63.80419922 54.4284668 66.80419922 C50.94929419 69.07631194 49.09560856 69.67070617 45.00216675 69.55709839 C38.92356338 67.8210482 34.65960139 62.14349092 30.40112305 57.68310547 C29.27740413 56.5400404 28.15159054 55.39903112 27.02378845 54.25999451 C24.06991636 51.26622391 21.14365099 48.24687307 18.22290039 45.2208252 C14.66162982 41.54108786 11.06890458 37.89210688 7.48069668 34.2386694 C4.69166819 31.39779501 1.90762005 28.5525465 -0.86253357 25.69325256 C-1.37112411 25.16984787 -1.87971466 24.64644318 -2.40371704 24.10717773 C-3.77687535 22.69335721 -5.14749359 21.27707092 -6.51792908 19.86061096 C-9.21971372 17.23503994 -9.95985723 16.81768274 -13.7590332 16.74169922 C-14.7077832 16.76232422 -15.6565332 16.78294922 -16.6340332 16.80419922 C-17.00915039 17.97337891 -17.38426758 19.14255859 -17.77075195 20.34716797 C-18.28689785 21.89560567 -18.80386873 23.44376854 -19.3215332 24.99169922 C-19.68794922 26.14508789 -19.68794922 26.14508789 -20.06176758 27.32177734 C-21.92709784 32.82332103 -24.18616891 37.08026707 -29.6340332 39.80419922 C-36.91657639 40.52008028 -43.26859056 38.50294449 -50.18823242 36.34350586 C-52.12356014 35.74493838 -54.06689132 35.1812318 -56.01293945 34.61865234 C-64.50332146 32.00656481 -70.45317107 28.96738021 -76.07836914 22.02050781 C-78.94734469 18.86834859 -80.84875975 17.89119776 -85.15551758 17.4140625 C-89.57667264 17.32296254 -93.97336083 17.59002492 -98.3840332 17.86669922 C-99.97042671 17.94773187 -101.55693746 18.02650024 -103.14355469 18.10302734 C-105.49428045 18.21857803 -107.84434613 18.33820292 -110.19407654 18.4725647 C-114.40767243 18.71288677 -118.58723291 18.84594642 -122.80981445 18.80029297 C-123.66027344 18.802146 -124.51073242 18.80399902 -125.38696289 18.8059082 C-126.85022619 18.80482545 -128.31397451 18.77527025 -129.77563477 18.70678711 C-140.63431906 18.90059538 -150.42282279 33.42813522 -157.76904297 40.74633789 C-158.95097837 41.9203505 -160.1330869 43.09418884 -161.31535339 44.26786804 C-165.1557053 48.08230014 -168.99087711 51.90191708 -172.82543945 55.72216797 C-174.15219083 57.04355148 -175.47894702 58.36493015 -176.80570793 59.68630409 C-182.31988347 65.1789152 -187.83264674 70.67293726 -193.34170628 76.17068005 C-201.21479396 84.02747911 -209.0963 91.87561501 -216.98956829 99.71214122 C-222.55601677 105.23993631 -228.11289155 110.77723939 -233.66269344 116.32174665 C-236.97247613 119.62787615 -240.28631241 122.92968907 -243.61044502 126.22139549 C-246.72982071 129.31076393 -249.83718669 132.41171865 -252.93568611 135.52202034 C-254.07419946 136.66075488 -255.21700429 137.79521731 -256.36436081 138.9250412 C-257.92986221 140.46791018 -259.47917103 142.02542736 -261.02540588 143.58757019 C-262.33192281 144.8891219 -262.33192281 144.8891219 -263.66483402 146.21696758 C-265.93935047 149.2053402 -266.56055294 151.0628407 -266.6340332 154.80419922 C-264.71886253 157.10960844 -263.00130996 158.87794805 -260.7590332 160.80419922 C-254.90950524 165.89766575 -254.90950524 165.89766575 -253.65356445 170.03076172 C-253.6340332 172.80419922 -253.6340332 172.80419922 -255.1965332 175.17919922 C-257.6340332 176.80419922 -257.6340332 176.80419922 -260.3840332 177.49169922 C-265.43095113 176.42408197 -268.04082655 173.38010311 -271.6340332 169.80419922 C-272.17141113 169.27375 -272.70878906 168.74330078 -273.26245117 168.19677734 C-277.08044901 164.42607098 -280.86556476 160.62436921 -284.6340332 156.80419922 C-280.82311589 152.28580873 -276.91657023 147.89863037 -272.82876587 143.62969971 C-271.99973867 142.76023197 -271.99973867 142.76023197 -271.15396345 141.87319922 C-269.31960382 139.95127424 -267.48217211 138.03232323 -265.64428711 136.11376953 C-264.6742018 135.09949103 -264.6742018 135.09949103 -263.68451881 134.06472206 C-250.89920229 120.70051447 -238.00111317 107.4469718 -225.06138039 94.23236465 C-216.84205503 85.83391733 -208.66069037 77.40431377 -200.5637207 68.88769531 C-193.47580774 61.43257056 -186.322632 54.04755677 -179.08719766 46.73541903 C-175.27164755 42.87499228 -171.49360135 38.99057761 -167.79246902 35.02005768 C-152.15185172 18.28693914 -139.71409346 6.29074821 -115.9128418 5.43603516 C-111.11325407 5.34601862 -106.3447609 5.43703988 -101.5524807 5.70290756 C-97.75818127 5.80099 -94.36856693 5.43116253 -90.6340332 4.80419922 C-87.92515322 4.56608213 -85.22099036 4.34800557 -82.5090332 4.15576172 C-80.91389115 4.0378766 -79.31875805 3.91987027 -77.72363281 3.80175781 C-76.89330536 3.74107117 -76.06297791 3.68038452 -75.20748901 3.61785889 C-60.42082214 2.53385051 -45.65984231 1.30724987 -30.90942383 -0.19335938 C-24.96890797 -0.79454223 -19.0267468 -1.36021614 -13.07543945 -1.84423828 C-11.95983643 -1.93624512 -10.8442334 -2.02825195 -9.69482422 -2.12304688 C-6.03485025 -2.21004315 -3.02480492 -2.21358053 0 0 Z " fill="#ABABBD" transform="translate(397.634033203125,56.19580078125)"/>
<path d="M0 0 C1.14926266 0.95421808 2.29430541 1.91352045 3.4375 2.875 C4.07558594 3.40867188 4.71367187 3.94234375 5.37109375 4.4921875 C7 6 7 6 8 8 C6.1746875 8.61875 6.1746875 8.61875 4.3125 9.25 C-2.61157384 11.91966932 -5.93211482 15.5220521 -9.046875 22.21484375 C-10.89497905 27.61524614 -11.11780856 32.97592862 -9.125 38.3671875 C-8.45292445 39.71628033 -7.73961266 41.04624668 -6.97265625 42.34375 C-6 44 -6 44 -5 47 C-3.25132517 48.08431094 -3.25132517 48.08431094 -1 49 C-0.10410156 49.50660156 0.79179687 50.01320313 1.71484375 50.53515625 C7.82792708 53.2609663 15.02331218 52.99730814 21.4765625 51.37890625 C27.83876895 48.61539959 31.55600795 43.15052811 34.375 37 C34.684375 36.01 34.684375 36.01 35 35 C36.1725131 35.95117134 37.33787015 36.91117009 38.5 37.875 C39.1496875 38.40867187 39.799375 38.94234375 40.46875 39.4921875 C40.9740625 39.98976563 41.479375 40.48734375 42 41 C42 41.66 42 42.32 42 43 C41.34773438 43.268125 40.69546875 43.53625 40.0234375 43.8125 C33.54812306 46.71588583 29.52452327 49.7833132 26 56 C23.59913867 63.20258399 24.85102811 70.88153061 27 78 C23.27721153 79.24092949 22.52903423 78.43222119 19 77 C11.65642639 76.12890023 5.01471868 76.40840672 -1 81 C-5.42182 85.16519652 -8.63467098 89.40580718 -9.265625 95.61328125 C-9.23198231 101.42505553 -8.68135119 106.43052419 -7 112 C-8.485 112.495 -8.485 112.495 -10 113 C-10.59296875 112.69835937 -11.1859375 112.39671875 -11.796875 112.0859375 C-16.90391614 109.56863708 -24.07516215 110.18030022 -29.453125 111.6875 C-36.71084344 115.01164585 -40.25442667 120.77480704 -43 128 C-46.7952131 126.50902342 -48.61042731 124.24299151 -51 121 C-50.33613281 120.70867187 -49.67226562 120.41734375 -48.98828125 120.1171875 C-41.6585716 116.71449017 -38.15563402 113.86527479 -34.1875 106.75 C-32.04334114 99.97897204 -32.08482247 94.31411957 -34.9375 87.75 C-38.28625587 81.65699148 -43.48307282 78.17230906 -50 76 C-57.69042969 75.07527558 -63.39468049 75.76362217 -69.8671875 80.14453125 C-73.98584521 83.72761259 -76.29106727 87.87320182 -78 93 C-81.7952131 91.50902342 -83.61042731 89.24299151 -86 86 C-85.34773437 85.72027344 -84.69546875 85.44054687 -84.0234375 85.15234375 C-76.80091647 81.83935844 -72.14781338 78.39325464 -68.625 71.1875 C-67.37765606 64.8260459 -67.20320681 58.94318552 -70 53 C-70 51.68 -70 50.36 -70 49 C-69.443125 49.2165625 -68.88625 49.433125 -68.3125 49.65625 C-59.93961447 52.71122175 -53.61341736 52.96626917 -45.40234375 49.3984375 C-40.37242746 46.47045371 -37.13731798 42.27463596 -34.5625 37.125 C-33.42613042 30.81183569 -33.15261499 24.87273158 -36 19 C-36 18.01 -36 17.02 -36 16 C-33.23723823 16.52268466 -30.6739124 17.10869587 -28 18 C-20.92933442 18.77853899 -15.01489426 17.91774722 -9 14 C-4.49594382 10.02698975 -2.04992981 5.58036449 0 0 Z " fill="#76A1F9" transform="translate(237,225)"/>
<path d="M0 0 C6.14230744 2.31709081 10.09782839 6.69755725 14.609375 11.28125 C15.82140594 12.4960907 15.82140594 12.4960907 17.05792236 13.73547363 C18.75909895 15.44335538 20.45668253 17.15482265 22.15087891 18.86962891 C24.74777103 21.49774423 27.35524498 24.11497591 29.96484375 26.73046875 C31.61781377 28.39260659 33.27017863 30.05534651 34.921875 31.71875 C36.0921524 32.89540222 36.0921524 32.89540222 37.28607178 34.0958252 C38.36794769 35.19211243 38.36794769 35.19211243 39.47167969 36.31054688 C40.10644226 36.95213745 40.74120483 37.59372803 41.39520264 38.25476074 C44.51009928 41.64225379 45.31258884 43.80017347 45.375 48.3125 C45.40335937 49.23675781 45.43171875 50.16101563 45.4609375 51.11328125 C44.25064439 58.69299824 37.31354374 64.01991161 32.125 69.1875 C31.33480469 69.99380859 30.54460937 70.80011719 29.73046875 71.63085938 C24.79760349 76.56782852 20.73432111 80.52472277 13.5625 81.4375 C5.43348544 80.43919997 0.28330001 74.72827249 -5.234375 69.1640625 C-5.99421692 68.40709076 -6.75405884 67.65011902 -7.53692627 66.87020874 C-9.13393776 65.27523033 -10.72720076 63.67649075 -12.31689453 62.07421875 C-14.74576147 59.6292666 -17.19024422 57.20075674 -19.63671875 54.7734375 C-21.19106714 53.21710698 -22.74448481 51.65984627 -24.296875 50.1015625 C-25.02501404 49.37949615 -25.75315308 48.65742981 -26.50335693 47.91348267 C-31.1483629 43.20368096 -35.36841383 38.58622393 -35.5625 31.625 C-35.11458373 23.1753728 -27.24089097 16.89950801 -21.5625 11.25 C-20.93279297 10.60417969 -20.30308594 9.95835937 -19.65429688 9.29296875 C-13.91890132 3.55167865 -8.59852685 -1.09435796 0 0 Z " fill="#8FBE4F" transform="translate(304,155)"/>
<path d="M0 0 C6.70154714 2.40577607 11.21283882 6.68866592 16.0625 11.75 C17.06506836 12.76707031 17.06506836 12.76707031 18.08789062 13.8046875 C21.35691169 17.14677706 24.51412671 20.55603751 27.5703125 24.09375 C31.33345392 28.44539915 35.40325446 32.43038817 39.54492188 36.41796875 C43.37395224 40.17050849 45.7018918 42.78548191 46.4375 48.25 C45.39190124 57.21227511 38.09501882 63.3417249 31.9375 69.375 C31.13505859 70.18066406 30.33261719 70.98632812 29.50585938 71.81640625 C21.00337022 80.24127932 21.00337022 80.24127932 13.75 80.5625 C12.85796875 80.62566406 11.9659375 80.68882812 11.046875 80.75390625 C3.60054841 78.91141775 -2.59702286 70.57249073 -7.9296875 65.2734375 C-8.64609406 64.56273102 -9.36250061 63.85202454 -10.10061646 63.11978149 C-11.5993781 61.63039133 -13.0967494 60.13960088 -14.59277344 58.64746094 C-16.88291882 56.36711507 -19.18351561 54.09765354 -21.484375 51.828125 C-22.94596838 50.37305436 -24.40692864 48.91734742 -25.8671875 47.4609375 C-26.55360321 46.78686859 -27.24001892 46.11279968 -27.94723511 45.41830444 C-32.28324062 41.06179707 -34.61522448 37.91330035 -35.4375 31.6875 C-34.44384796 23.31243282 -27.89946751 17.42732694 -22.125 11.75 C-21.44308594 11.05648438 -20.76117188 10.36296875 -20.05859375 9.6484375 C-14.22226634 3.84546053 -8.74908405 -1.22794162 0 0 Z " fill="#8FBE4F" transform="translate(118,341)"/>
<path d="M0 0 C0.67313232 0.60074341 0.67313232 0.60074341 1.35986328 1.21362305 C8.91700176 7.84496683 15.84160612 11.50846481 26 12 C26.07476562 12.76183594 26.14953125 13.52367187 26.2265625 14.30859375 C26.42378906 15.85740234 26.42378906 15.85740234 26.625 17.4375 C26.79902344 18.95150391 26.79902344 18.95150391 26.9765625 20.49609375 C29.43806224 28.92344211 35.81454043 35.28155018 41.890625 41.359375 C42.63528015 42.11164368 43.3799353 42.86391235 44.14715576 43.63897705 C45.71323266 45.21578695 47.28321925 46.78872263 48.85693359 48.35791016 C51.24379349 50.74379602 53.60849359 53.15024113 55.97265625 55.55859375 C57.50650944 57.09765391 59.04162477 58.63545746 60.578125 60.171875 C61.27327209 60.88341736 61.96841919 61.59495972 62.68463135 62.32806396 C69.69360976 69.24121367 77.0845478 73.44914154 87 74 C87.17015625 74.78503906 87.3403125 75.57007813 87.515625 76.37890625 C89.40686547 84.57763489 91.58576098 90.30009281 97.13671875 96.69921875 C97.9424231 97.63060669 97.9424231 97.63060669 98.7644043 98.58081055 C99.17215088 99.04914307 99.57989746 99.51747559 100 100 C86.7216806 102.06980798 70.60224302 104.58238975 58.95087433 96.45031738 C50.96839645 90.18455185 44.19840871 82.56036104 37.5088501 74.97039795 C34.56015083 71.66704026 31.50402904 68.46631638 28.45703125 65.25390625 C20.24332123 56.5457113 12.24422 47.65319667 4.42047119 38.5925293 C3.0163487 36.95941689 3.0163487 36.95941689 1.3356781 35.50468445 C-0.96775773 32.90978971 -0.36305981 29.56599923 -0.29296875 26.26953125 C-0.28872391 25.51911057 -0.28447906 24.76868988 -0.28010559 23.99552917 C-0.2633245 21.60081974 -0.2256749 19.20695466 -0.1875 16.8125 C-0.17245235 15.1881632 -0.15876409 13.5638132 -0.14648438 11.93945312 C-0.11342305 7.95931052 -0.06164594 3.97979837 0 0 Z " fill="#71972D" transform="translate(233,172)"/>
<path d="M0 0 C0.72234833 0.6216806 0.72234833 0.6216806 1.45928955 1.25592041 C2.0905072 1.79827332 2.72172485 2.34062622 3.37207031 2.89941406 C3.99801086 3.4376178 4.62395142 3.97582153 5.26885986 4.53033447 C11.73550296 10.02024383 17.59369427 11.96466455 26 13 C26.11214844 13.89460938 26.22429687 14.78921875 26.33984375 15.7109375 C27.72964224 24.23140145 29.99995558 29.47164894 36.390625 35.47412109 C39.1044257 38.04712691 41.72590514 40.71257679 44.36474609 43.36206055 C45.83547991 44.83454184 47.31208621 46.30118867 48.79541016 47.76098633 C52.87070271 51.78227351 56.72576252 55.90937398 60.46337891 60.24560547 C68.19302949 69.07071971 76.24468223 74.1450678 88 75 C88.11214844 76.14275391 88.11214844 76.14275391 88.2265625 77.30859375 C89.20294672 84.97608157 91.18106641 89.99362584 96 96 C97.33344665 97.66657601 98.66679216 99.33323295 100 101 C86.2465641 103.62316744 71.33080478 105.25654045 59.21339035 97.0316906 C50.44675268 90.45548094 42.76791535 82.65415141 35.23681641 74.72436523 C31.62028943 70.91945201 27.86846578 67.29275922 24.05485153 63.68685722 C-1.09015138 39.70561035 -1.09015138 39.70561035 -2.05147362 22.51621342 C-2.18285437 14.92510889 -1.3767494 7.45892899 0 0 Z " fill="#71972D" transform="translate(47,357)"/>
<path d="M0 0 C11.61939789 -2.49471825 24.84860494 -4.07059725 35.39666748 2.47851562 C45.10240833 9.27485007 53.38543643 17.90014077 61.53686523 26.44042969 C65.18606155 30.26083645 68.96054746 33.92036175 72.78970909 37.55917358 C98.10006128 61.79990001 98.10006128 61.79990001 99.06519794 77.60292053 C99.19499048 84.4911914 98.39552016 91.25623142 97 98 C96.46818115 97.59370361 95.9363623 97.18740723 95.38842773 96.76879883 C94.68145752 96.23279053 93.9744873 95.69678223 93.24609375 95.14453125 C92.5492749 94.61448486 91.85245605 94.08443848 91.13452148 93.53833008 C85.00476973 89.12067415 79.53597396 87.34888768 72 87 C71.88785156 85.7315625 71.88785156 85.7315625 71.7734375 84.4375 C71.64195312 83.303125 71.51046875 82.16875 71.375 81 C71.25898438 79.88625 71.14296875 78.7725 71.0234375 77.625 C68.71585654 69.45158348 61.70037793 63.37232475 55.85546875 57.484375 C55.08624588 56.70612366 54.31702301 55.92787231 53.52449036 55.1260376 C51.90599674 53.49312143 50.2847509 51.86292898 48.66088867 50.23535156 C46.19269122 47.75521633 43.74379402 45.25701234 41.29492188 42.7578125 C39.71209052 41.16551966 38.12814281 39.57433561 36.54296875 37.984375 C35.82078659 37.24266052 35.09860443 36.50094604 34.35453796 35.73675537 C27.43118159 28.87345067 20.70369494 25.70572327 11 25 C10.91363281 24.29875 10.82726562 23.5975 10.73828125 22.875 C9.40885087 13.89829577 6.51885405 8.27741501 0 2 C0 1.34 0 0.68 0 0 Z " fill="#70962D" transform="translate(287,120)"/>
<path d="M0 0 C11.62008955 -2.49989673 24.8535183 -4.07936371 35.39666748 2.48565674 C45.10117261 9.30042076 53.38451509 17.94243464 61.53686523 26.49536133 C65.18742372 30.32279803 68.96165772 33.99241937 72.78970909 37.64118385 C98.09865038 61.946323 98.09865038 61.946323 99.06519794 77.30929852 C99.19458979 83.96562625 98.39969294 90.49390835 97 97 C94.2289164 95.71554923 92.48770628 94.5545272 90.125 92.5 C85.06089547 88.19551115 79.40250885 87.6623285 73 87 C72.90203125 86.28714844 72.8040625 85.57429688 72.703125 84.83984375 C70.12723049 68.34079527 57.4447912 58.25794257 46.11499023 46.9296875 C44.29967374 45.1121581 42.49255125 43.28672671 40.68554688 41.4609375 C39.51611418 40.28857434 38.3462091 39.11668215 37.17578125 37.9453125 C36.64439041 37.40673615 36.11299957 36.86815979 35.56550598 36.31326294 C28.14074835 28.93320324 21.30789453 25.85337689 11 25 C10.92523438 24.23816406 10.85046875 23.47632813 10.7734375 22.69140625 C9.79572109 15.01345681 7.78463071 10.03861789 3 4 C1.99794097 2.66821343 0.99766694 1.33507994 0 0 Z " fill="#71982D" transform="translate(101,306)"/>
<path d="M0 0 C0.66 0 1.32 0 2 0 C3.22338867 1.24243164 3.22338867 1.24243164 4.73046875 3.09765625 C9.94469254 9.22798362 15.68486942 14.8341673 21.38110352 20.51147461 C23.32881803 22.45377265 25.2710593 24.4014314 27.21289062 26.34960938 C28.45019983 27.58625875 29.68781868 28.82259842 30.92578125 30.05859375 C31.50596512 30.64080185 32.08614899 31.22300995 32.68391418 31.82286072 C35.56824445 34.77271086 35.56824445 34.77271086 39 37 C37.61027754 40.19845671 36.02540776 42.06418136 33.4375 44.375 C27.71737506 49.91735141 21.81619453 57.77627859 19.1796875 65.359375 C18 67 18 67 14.76853943 67.88804626 C11 68 11 68 8.22206116 66.18409729 C7.33159592 65.27586716 6.44113068 64.36763702 5.52368164 63.43188477 C5.02522736 62.93459869 4.52677307 62.43731262 4.01321411 61.92495728 C2.37584094 60.28202518 0.76859824 58.61263147 -0.83984375 56.94140625 C-1.97151542 55.79480833 -3.10497048 54.64996807 -4.24012756 53.50682068 C-7.21890609 50.49753912 -10.17288129 47.46501387 -13.12231445 44.42700195 C-16.13788308 41.32950396 -19.17630997 38.25461146 -22.21289062 35.17773438 C-28.16452671 29.14037455 -34.0901485 23.07826658 -40 17 C-36.57263289 15.8575443 -36.17147277 16.12576953 -33 17.4375 C-26.56943056 19.71019311 -19.57780653 20.30306693 -13.125 17.75 C-7.41038024 14.54981293 -4.54307859 11.94180659 -2.1875 5.75 C-1.76855469 4.67234375 -1.34960938 3.5946875 -0.91796875 2.484375 C-0.61503906 1.66453125 -0.31210937 0.8446875 0 0 Z " fill="#9999B3" transform="translate(386,86)"/>
<path d="M0 0 C4.81604159 3.21069439 8.98550956 7.98741574 11.109375 13.40625 C12.07646995 20.91905077 11.57816511 27.59816918 7.8125 34.2421875 C4.43706556 38.53115696 -0.07820097 41.00003799 -4.890625 43.40625 C-12.56210846 44.06908356 -19.60422654 44.28610269 -25.890625 39.40625 C-31.50714512 34.22571546 -34.93087971 28.3368286 -35.390625 20.59375 C-35.14748849 13.93788803 -32.74343719 8.19004254 -27.953125 3.515625 C-19.31803232 -3.22236398 -10.08736478 -5.00791159 0 0 Z " fill="#242327" transform="translate(226.890625,268.59375)"/>
<path d="M0 0 C4.94141257 2.04451371 8.63577804 7.20105648 11.9057312 11.28849792 C13.30312314 14.78197777 13.58260131 18.11880017 12.9057312 21.78849792 C10.93786616 26.291551 8.65361013 29.42499355 5.1947937 32.89787292 C4.27955933 33.81697449 3.36432495 34.73607605 2.4213562 35.68302917 C1.94633667 36.15176453 1.47131714 36.62049988 0.98190308 37.10343933 C-0.4690182 38.53825011 -1.90317635 39.98843171 -3.3364563 41.44084167 C-4.2542688 42.35478699 -5.1720813 43.2687323 -6.1177063 44.21037292 C-6.95221313 45.04149597 -7.78671997 45.87261902 -8.64651489 46.72892761 C-12.2828354 49.78857251 -15.64968306 51.20756194 -20.4067688 50.85099792 C-26.08322411 50.0670615 -29.23260781 46.77608264 -33.0942688 42.78849792 C-33.62536255 42.26900574 -34.1564563 41.74951355 -34.7036438 41.21427917 C-35.85095032 40.08953205 -36.97579653 38.94192245 -38.0942688 37.78849792 C-36.7234678 34.72581759 -35.15617458 32.58650435 -32.80960083 30.19743347 C-32.14195709 29.51380234 -31.47431335 28.8301712 -30.78643799 28.12582397 C-30.06560028 27.39962357 -29.34476257 26.67342316 -28.6020813 25.92521667 C-27.85973236 25.17383926 -27.11738342 24.42246185 -26.35253906 23.64831543 C-24.78335123 22.06463566 -23.21134976 20.48373953 -21.63674927 18.90544128 C-19.22299352 16.47974107 -16.82851437 14.03601929 -14.43411255 11.5912323 C-12.90792044 10.05558169 -11.38061404 8.52103752 -9.8520813 6.98771667 C-8.77689743 5.88323433 -8.77689743 5.88323433 -7.67999268 4.75643921 C-7.00604462 4.08856888 -6.33209656 3.42069855 -5.63772583 2.73258972 C-5.04863434 2.13842758 -4.45954285 1.54426544 -3.8526001 0.93209839 C-2.0942688 -0.21150208 -2.0942688 -0.21150208 0 0 Z " fill="#8EBD4F" transform="translate(89.09426879882813,309.2115020751953)"/>
<path d="M0 0 C3.53068355 1.66089742 5.86305586 3.59458132 8.625 6.375 C9.78902344 7.53128906 9.78902344 7.53128906 10.9765625 8.7109375 C13.86595509 11.97963259 14.90950228 14.02262465 15.3125 18.375 C14.7621932 24.75855888 11.71242492 28.66802795 7.2890625 33.109375 C6.37382812 34.02847656 5.45859375 34.94757813 4.515625 35.89453125 C4.04060547 36.3632666 3.56558594 36.83200195 3.07617188 37.31494141 C1.6252506 38.74975219 0.19109245 40.19993378 -1.2421875 41.65234375 C-2.16 42.56628906 -3.0778125 43.48023438 -4.0234375 44.421875 C-4.85794434 45.25299805 -5.69245117 46.08412109 -6.55224609 46.94042969 C-10.01293125 49.85229284 -12.86383157 50.84994002 -17.3125 51.4375 C-25.84575377 50.42508006 -31.37829504 44.02539122 -37 38 C-32.75789864 32.93288701 -28.32282911 28.18776629 -23.6328125 23.53515625 C-22.95322479 22.85698349 -22.27363708 22.17881073 -21.57345581 21.48008728 C-19.42632998 19.33850859 -17.27573373 17.20045471 -15.125 15.0625 C-13.65862227 13.60114411 -12.1924742 12.13955774 -10.7265625 10.67773438 C-7.15369 7.11582065 -3.57770316 3.55706135 0 0 Z " fill="#8EBD4F" transform="translate(273,123)"/>
<path d="M0 0 C3.37685377 1.97983051 5.74510519 4.1743831 8.453125 6.9921875 C9.76410156 8.34376953 9.76410156 8.34376953 11.1015625 9.72265625 C12.07996094 10.75326172 12.07996094 10.75326172 13.078125 11.8046875 C8.83602364 16.87180049 4.40095411 21.61692121 -0.2890625 26.26953125 C-0.96865021 26.94770401 -1.64823792 27.62587677 -2.34841919 28.32460022 C-4.49554502 30.46617891 -6.64614127 32.60423279 -8.796875 34.7421875 C-10.26325273 36.20354339 -11.7294008 37.66512976 -13.1953125 39.12695312 C-16.768185 42.68886685 -20.34417184 46.24762615 -23.921875 49.8046875 C-27.67837023 48.06761132 -29.84748349 45.97602737 -32.609375 42.8671875 C-33.39699219 41.99191406 -34.18460938 41.11664063 -34.99609375 40.21484375 C-37.53899089 37.03235383 -38.1040582 34.46342044 -38.234375 30.4921875 C-38.27175781 29.75355469 -38.30914062 29.01492188 -38.34765625 28.25390625 C-37.04004105 20.73211974 -29.56695324 15.15320394 -24.421875 10.0546875 C-23.56722656 9.19230469 -22.71257812 8.32992188 -21.83203125 7.44140625 C-21.00574219 6.61769531 -20.17945313 5.79398437 -19.328125 4.9453125 C-18.57853516 4.19797852 -17.82894531 3.45064453 -17.05664062 2.68066406 C-11.89930112 -1.85147189 -6.32031377 -2.58558291 0 0 Z " fill="#8EBE4F" transform="translate(182.921875,404.1953125)"/>
<path d="M0 0 C6.49409255 2.82238228 11.24252338 7.90089607 16 13 C11.75789864 18.06711299 7.32282911 22.81223371 2.6328125 27.46484375 C1.95322479 28.14301651 1.27363708 28.82118927 0.57345581 29.51991272 C-1.57367002 31.66149141 -3.72426627 33.79954529 -5.875 35.9375 C-7.34137773 37.39885589 -8.8075258 38.86044226 -10.2734375 40.32226562 C-13.84631 43.88417935 -17.42229684 47.44293865 -21 51 C-24.30352677 49.43317459 -26.53833618 47.73133427 -29.125 45.125 C-29.80820312 44.44695312 -30.49140625 43.76890625 -31.1953125 43.0703125 C-35.03314216 38.66760748 -35.75444651 34.6867535 -35.6171875 28.921875 C-34.40566616 23.18631829 -30.12113556 19.90036044 -26 16 C-24.90088908 14.86846398 -23.80739035 13.73145698 -22.71875 12.58984375 C-21.58432646 11.41310428 -20.44891672 10.2373147 -19.3125 9.0625 C-18.77858643 8.50643066 -18.24467285 7.95036133 -17.69458008 7.37744141 C-12.52296123 2.1698919 -7.61633874 -1.05052948 0 0 Z " fill="#8EBE4F" transform="translate(366,217)"/>
<path d="M0 0 C3.09179136 1.3761536 5.19638753 2.95158445 7.57519531 5.34814453 C8.25559875 6.02869904 8.9360022 6.70925354 9.63702393 7.41043091 C10.36008728 8.14381683 11.08315063 8.87720276 11.828125 9.6328125 C12.57713074 10.38464813 13.32613647 11.13648376 14.09783936 11.91110229 C16.4866302 14.31107901 18.86836897 16.71792009 21.25 19.125 C22.86933169 20.75436352 24.48911802 22.38327534 26.109375 24.01171875 C30.07820505 28.00258806 34.04126899 31.99911415 38 36 C37.06725891 37.12894876 36.12859878 38.25300876 35.1875 39.375 C34.66542969 40.00148437 34.14335937 40.62796875 33.60546875 41.2734375 C32 43 32 43 29 45 C23.86609064 39.91664561 18.73991618 34.82558835 13.61914062 29.72900391 C11.87483628 27.99478037 10.12874434 26.26235294 8.38085938 24.53173828 C5.87422271 22.04925855 3.37400718 19.56046935 0.875 17.0703125 C0.08754395 16.29317902 -0.69991211 15.51604553 -1.51123047 14.71536255 C-2.23197754 13.99476654 -2.95272461 13.27417053 -3.6953125 12.53173828 C-4.33484863 11.89664337 -4.97438477 11.26154846 -5.63330078 10.60720825 C-7 9 -7 9 -7 7 C-5.01739574 5.31267723 -3.0167658 3.64633943 -1 2 C-0.67 1.34 -0.34 0.68 0 0 Z " fill="#675C76" transform="translate(347,120)"/>
<path d="M0 0 C5.15055847 1.78288562 7.56506082 4.13012164 10 9 C10.6506249 14.20499921 9.910372 17.634442 7 22 C3.62833366 25.05055526 0.97411596 26.27403455 -3.5 26.5 C-7.97411596 26.27403455 -10.62833366 25.05055526 -14 22 C-17.10857961 17.68809925 -17.421537 14.21964422 -16.6484375 9.1171875 C-14.32907155 1.54431795 -7.13705155 -0.85319592 0 0 Z " fill="#675C76" transform="translate(185,310)"/>
<path d="M0 0 C3.95522111 2.08955078 6.62738482 4.22290572 9 8 C9.89486349 12.88547094 9.49271949 16.95770878 7.375 21.4375 C3.95222304 25.1304962 0.97865481 26.71144617 -4 27.4375 C-9.16024644 26.68496406 -12.03278344 24.11993496 -15.375 20.25 C-17.3667387 16.26652261 -17.86281052 13.36634417 -17 9 C-13.30353484 1.74397579 -8.2210911 -1.46690057 0 0 Z " fill="#675C76" transform="translate(253,242)"/>
<path d="M0 0 C5.33739473 1.98844117 8.45333824 4.90667648 11 10 C11.0442316 14.50277673 10.56748767 18.0802786 8.1875 21.9375 C3.91673411 25.96422213 0.21225588 26.50124865 -5.5234375 26.3828125 C-9.66288025 25.74296173 -11.23117794 24.11492481 -14 21 C-16.45322926 17.16016289 -16.21831922 13.53340185 -15.61328125 9.15234375 C-13.53972353 1.87508068 -6.80719806 -0.57688119 0 0 Z " fill="#675C76" transform="translate(218,276)"/>
<path d="M0 0 C0.66 0.33 1.32 0.66 2 1 C1.8361264 7.7039198 0.90901189 11.31931425 -4 16 C-7.46428974 18.54047914 -10.81027137 18.16114341 -15 18 C-15 15 -15 15 -13.62304688 13.2824707 C-12.99462891 12.66976318 -12.36621094 12.05705566 -11.71875 11.42578125 C-11.04199219 10.75869141 -10.36523438 10.09160156 -9.66796875 9.40429688 C-8.95253906 8.71400391 -8.23710937 8.02371094 -7.5 7.3125 C-6.42685547 6.2596582 -6.42685547 6.2596582 -5.33203125 5.18554688 C-3.56120423 3.45013639 -1.78376544 1.7220927 0 0 Z " fill="#655B75" transform="translate(192,250)"/>
<path d="M0 0 C0.66 0.33 1.32 0.66 2 1 C2.45760607 6.7200759 1.63848132 9.55296727 -2 14 C-5.56426813 17.82828799 -10.04731401 17.69310279 -15 18 C-15 15 -15 15 -13.62304688 13.2824707 C-12.99462891 12.66976318 -12.36621094 12.05705566 -11.71875 11.42578125 C-11.04199219 10.75869141 -10.36523438 10.09160156 -9.66796875 9.40429688 C-8.95253906 8.71400391 -8.23710937 8.02371094 -7.5 7.3125 C-6.42685547 6.2596582 -6.42685547 6.2596582 -5.33203125 5.18554688 C-3.56120423 3.45013639 -1.78376544 1.7220927 0 0 Z " fill="#655B75" transform="translate(226,216)"/>
<path d="M0 0 C0.66 0.33 1.32 0.66 2 1 C1.83594462 7.71135664 0.85033511 11.26796574 -4 16 C-6.52475462 17.26237731 -8.31200466 17.09856404 -11.125 17.0625 C-12.03507813 17.05347656 -12.94515625 17.04445313 -13.8828125 17.03515625 C-14.93082031 17.01775391 -14.93082031 17.01775391 -16 17 C-11.01595832 10.96668638 -5.58084697 5.4815829 0 0 Z " fill="#675C77" transform="translate(158,284)"/>
<path d="M0 0 C-1.32120828 2.93230193 -2.74638197 4.98664899 -5.0390625 7.234375 C-5.90917969 8.09482422 -5.90917969 8.09482422 -6.796875 8.97265625 C-7.40015625 9.55917969 -8.0034375 10.14570313 -8.625 10.75 C-9.23601562 11.35199219 -9.84703125 11.95398438 -10.4765625 12.57421875 C-11.97988624 14.05405305 -13.48934856 15.52764676 -15 17 C-15.66 16.67 -16.32 16.34 -17 16 C-17.45760607 10.2799241 -16.63848132 7.44703273 -13 3 C-9.37870498 -1.02366113 -5.0311249 -0.29025721 0 0 Z " fill="#665B75" transform="translate(220,345)"/>
<path d="M0 0 C-1.32120828 2.93230193 -2.74638197 4.98664899 -5.0390625 7.234375 C-5.90917969 8.09482422 -5.90917969 8.09482422 -6.796875 8.97265625 C-7.40015625 9.55917969 -8.0034375 10.14570313 -8.625 10.75 C-9.23601562 11.35199219 -9.84703125 11.95398438 -10.4765625 12.57421875 C-11.97988624 14.05405305 -13.48934856 15.52764676 -15 17 C-15.66 16.67 -16.32 16.34 -17 16 C-17.45647158 10.29410528 -16.69917584 7.39901992 -13 3 C-8.7604485 -0.53295958 -5.28561944 -0.26876031 0 0 Z " fill="#665C76" transform="translate(254,311)"/>
<path d="M0 0 C0 3 0 3 -1.25341797 4.62573242 C-2.11410889 5.4819519 -2.11410889 5.4819519 -2.9921875 6.35546875 C-3.61480469 6.97744141 -4.23742187 7.59941406 -4.87890625 8.24023438 C-5.53761719 8.88283203 -6.19632812 9.52542969 -6.875 10.1875 C-7.85146484 11.16879883 -7.85146484 11.16879883 -8.84765625 12.16992188 C-13.73313673 17 -13.73313673 17 -16 17 C-16.41813284 10.93707386 -16.13274522 7.80292012 -12 3 C-8.05062318 -0.20219742 -4.99834992 -0.29402058 0 0 Z " fill="#665C76" transform="translate(287,277)"/>
</svg>
